<svg id="my-svg" width="100%" xmlns="http://www.w3.org/2000/svg" xmlns:xlink="http://www.w3.org/1999/xlink" class="flowchart" style="max-width: 101.359px; background-color: white;" viewBox="0 0 101.359375 242.671875" role="graphics-document document" aria-roledescription="flowchart-v2"><style>#my-svg{font-family:"trebuchet ms",verdana,arial,sans-serif;font-size:16px;fill:#333;}@keyframes edge-animation-frame{from{stroke-dashoffset:0;}}@keyframes dash{to{stroke-dashoffset:0;}}#my-svg .edge-animation-slow{stroke-dasharray:9,5!important;stroke-dashoffset:900;animation:dash 50s linear infinite;stroke-linecap:round;}#my-svg .edge-animation-fast{stroke-dasharray:9,5!important;stroke-dashoffset:900;animation:dash 20s linear infinite;stroke-linecap:round;}#my-svg .error-icon{fill:#552222;}#my-svg .error-text{fill:#552222;stroke:#552222;}#my-svg .edge-thickness-normal{stroke-width:1px;}#my-svg .edge-thickness-thick{stroke-width:3.5px;}#my-svg .edge-pattern-solid{stroke-dasharray:0;}#my-svg .edge-thickness-invisible{stroke-width:0;fill:none;}#my-svg .edge-pattern-dashed{stroke-dasharray:3;}#my-svg .edge-pattern-dotted{stroke-dasharray:2;}#my-svg .marker{fill:#333333;stroke:#333333;}#my-svg .marker.cross{stroke:#333333;}#my-svg svg{font-family:"trebuchet ms",verdana,arial,sans-serif;font-size:16px;}#my-svg p{margin:0;}#my-svg .label{font-family:"trebuchet ms",verdana,arial,sans-serif;color:#333;}#my-svg .cluster-label text{fill:#333;}#my-svg .cluster-label span{color:#333;}#my-svg .cluster-label span p{background-color:transparent;}#my-svg .label text,#my-svg span{fill:#333;color:#333;}#my-svg .node rect,#my-svg .node circle,#my-svg .node ellipse,#my-svg .node polygon,#my-svg .node path{fill:#ECECFF;stroke:#9370DB;stroke-width:1px;}#my-svg .rough-node .label text,#my-svg .node .label text,#my-svg .image-shape .label,#my-svg .icon-shape .label{text-anchor:middle;}#my-svg .node .katex path{fill:#000;stroke:#000;stroke-width:1px;}#my-svg .rough-node .label,#my-svg .node .label,#my-svg .image-shape .label,#my-svg .icon-shape .label{text-align:center;}#my-svg .node.clickable{cursor:pointer;}#my-svg .root .anchor path{fill:#333333!important;stroke-width:0;stroke:#333333;}#my-svg .arrowheadPath{fill:#333333;}#my-svg .edgePath .path{stroke:#333333;stroke-width:1px;}#my-svg .flowchart-link{stroke:#333333;fill:none;}#my-svg .edgeLabel{background-color:rgba(232,232,232, 0.8);text-align:center;}#my-svg .edgeLabel p{background-color:rgba(232,232,232, 0.8);}#my-svg .edgeLabel rect{opacity:0.5;background-color:rgba(232,232,232, 0.8);fill:rgba(232,232,232, 0.8);}#my-svg .labelBkg{background-color:rgba(232, 232, 232, 0.5);}#my-svg .cluster rect{fill:#ffffde;stroke:#aaaa33;stroke-width:1px;}#my-svg .cluster text{fill:#333;}#my-svg .cluster span{color:#333;}#my-svg div.mermaidTooltip{position:absolute;text-align:center;max-width:200px;padding:2px;font-family:"trebuchet ms",verdana,arial,sans-serif;font-size:12px;background:hsl(80, 100%, 96.2745098039%);border:1px solid #aaaa33;border-radius:2px;pointer-events:none;z-index:100;}#my-svg .flowchartTitleText{text-anchor:middle;font-size:18px;fill:#333;}#my-svg rect.text{fill:none;stroke-width:0;}#my-svg .icon-shape,#my-svg .image-shape{background-color:rgba(232,232,232, 0.8);text-align:center;}#my-svg .icon-shape p,#my-svg .image-shape p{background-color:rgba(232,232,232, 0.8);padding:2px;}#my-svg .icon-shape .label rect,#my-svg .image-shape .label rect{opacity:0.5;background-color:rgba(232,232,232, 0.8);fill:rgba(232,232,232, 0.8);}#my-svg .label-icon{display:inline-block;height:1em;overflow:visible;vertical-align:-0.125em;}#my-svg .node .label-icon path{fill:currentColor;stroke:revert;stroke-width:revert;}#my-svg .node .neo-node{stroke:#9370DB;}#my-svg [data-look="neo"].node rect,#my-svg [data-look="neo"].cluster rect,#my-svg [data-look="neo"].node polygon{stroke:#9370DB;filter:drop-shadow(1px 2px 2px rgba(185, 185, 185, 1));}#my-svg [data-look="neo"].node path{stroke:#9370DB;stroke-width:1px;}#my-svg [data-look="neo"].node .outer-path{filter:drop-shadow(1px 2px 2px rgba(185, 185, 185, 1));}#my-svg [data-look="neo"].node .neo-line path{stroke:#9370DB;filter:none;}#my-svg [data-look="neo"].node circle{stroke:#9370DB;filter:drop-shadow(1px 2px 2px rgba(185, 185, 185, 1));}#my-svg [data-look="neo"].node circle .state-start{fill:#000000;}#my-svg [data-look="neo"].icon-shape .icon{fill:#9370DB;filter:drop-shadow(1px 2px 2px rgba(185, 185, 185, 1));}#my-svg [data-look="neo"].icon-shape .icon-neo path{stroke:#9370DB;filter:drop-shadow(1px 2px 2px rgba(185, 185, 185, 1));}#my-svg :root{--mermaid-font-family:"trebuchet ms",verdana,arial,sans-serif;}</style><g><marker id="my-svg_flowchart-v2-pointEnd" class="marker flowchart-v2" viewBox="0 0 10 10" refX="5" refY="5" markerUnits="userSpaceOnUse" markerWidth="8" markerHeight="8" orient="auto"><path d="M 0 0 L 10 5 L 0 10 z" class="arrowMarkerPath" style="stroke-width: 1; stroke-dasharray: 1, 0;"/></marker><marker id="my-svg_flowchart-v2-pointStart" class="marker flowchart-v2" viewBox="0 0 10 10" refX="4.5" refY="5" markerUnits="userSpaceOnUse" markerWidth="8" markerHeight="8" orient="auto"><path d="M 0 5 L 10 10 L 10 0 z" class="arrowMarkerPath" style="stroke-width: 1; stroke-dasharray: 1, 0;"/></marker><marker id="my-svg_flowchart-v2-pointEnd-margin" class="marker flowchart-v2" viewBox="0 0 11.5 14" refX="11.5" refY="7" markerUnits="userSpaceOnUse" markerWidth="10.5" markerHeight="14" orient="auto"><path d="M 0 0 L 11.5 7 L 0 14 z" class="arrowMarkerPath" style="stroke-width: 0; stroke-dasharray: 1, 0;"/></marker><marker id="my-svg_flowchart-v2-pointStart-margin" class="marker flowchart-v2" viewBox="0 0 11.5 14" refX="1" refY="7" markerUnits="userSpaceOnUse" markerWidth="11.5" markerHeight="14" orient="auto"><polygon points="0,7 11.5,14 11.5,0" class="arrowMarkerPath" style="stroke-width: 0; stroke-dasharray: 1, 0;"/></marker><marker id="my-svg_flowchart-v2-circleEnd" class="marker flowchart-v2" viewBox="0 0 10 10" refX="11" refY="5" markerUnits="userSpaceOnUse" markerWidth="11" markerHeight="11" orient="auto"><circle cx="5" cy="5" r="5" class="arrowMarkerPath" style="stroke-width: 1; stroke-dasharray: 1, 0;"/></marker><marker id="my-svg_flowchart-v2-circleStart" class="marker flowchart-v2" viewBox="0 0 10 10" refX="-1" refY="5" markerUnits="userSpaceOnUse" markerWidth="11" markerHeight="11" orient="auto"><circle cx="5" cy="5" r="5" class="arrowMarkerPath" style="stroke-width: 1; stroke-dasharray: 1, 0;"/></marker><marker id="my-svg_flowchart-v2-circleEnd-margin" class="marker flowchart-v2" viewBox="0 0 10 10" refY="5" refX="12.25" markerUnits="userSpaceOnUse" markerWidth="14" markerHeight="14" orient="auto"><circle cx="5" cy="5" r="5" class="arrowMarkerPath" style="stroke-width: 0; stroke-dasharray: 1, 0;"/></marker><marker id="my-svg_flowchart-v2-circleStart-margin" class="marker flowchart-v2" viewBox="0 0 10 10" refX="-2" refY="5" markerUnits="userSpaceOnUse" markerWidth="14" markerHeight="14" orient="auto"><circle cx="5" cy="5" r="5" class="arrowMarkerPath" style="stroke-width: 0; stroke-dasharray: 1, 0;"/></marker><marker id="my-svg_flowchart-v2-crossEnd" class="marker cross flowchart-v2" viewBox="0 0 11 11" refX="12" refY="5.2" markerUnits="userSpaceOnUse" markerWidth="11" markerHeight="11" orient="auto"><path d="M 1,1 l 9,9 M 10,1 l -9,9" class="arrowMarkerPath" style="stroke-width: 2; stroke-dasharray: 1, 0;"/></marker><marker id="my-svg_flowchart-v2-crossStart" class="marker cross flowchart-v2" viewBox="0 0 11 11" refX="-1" refY="5.2" markerUnits="userSpaceOnUse" markerWidth="11" markerHeight="11" orient="auto"><path d="M 1,1 l 9,9 M 10,1 l -9,9" class="arrowMarkerPath" style="stroke-width: 2; stroke-dasharray: 1, 0;"/></marker><marker id="my-svg_flowchart-v2-crossEnd-margin" class="marker cross flowchart-v2" viewBox="0 0 15 15" refX="17.7" refY="7.5" markerUnits="userSpaceOnUse" markerWidth="12" markerHeight="12" orient="auto"><path d="M 1,1 L 14,14 M 1,14 L 14,1" class="arrowMarkerPath" style="stroke-width: 2.5;"/></marker><marker id="my-svg_flowchart-v2-crossStart-margin" class="marker cross flowchart-v2" viewBox="0 0 15 15" refX="-3.5" refY="7.5" markerUnits="userSpaceOnUse" markerWidth="12" markerHeight="12" orient="auto"><path d="M 1,1 L 14,14 M 1,14 L 14,1" class="arrowMarkerPath" style="stroke-width: 2.5; stroke-dasharray: 1, 0;"/></marker><g class="root"><g class="clusters"/><g class="edgePaths"><path d="M50.68,32.672L50.68,36.839C50.68,41.005,50.68,49.339,50.75,57.089C50.82,64.839,50.961,72.006,51.031,75.589L51.101,79.173" id="my-svg-L___start_idle_0" class="edge-thickness-normal edge-pattern-solid edge-thickness-normal edge-pattern-solid flowchart-link" style=";" data-edge="true" data-et="edge" data-id="L___start_idle_0" data-points="W3sieCI6NTAuNjc5Njg3NSwieSI6MzIuNjcxODc1fSx7IngiOjUwLjY3OTY4NzUsInkiOjU3LjY3MTg3NX0seyJ4Ijo1MS4xNzk2ODc1LCJ5Ijo4My4xNzE4NzUwMDAwMDAwNH1d" data-look="classic" marker-end="url(#my-svg_flowchart-v2-pointEnd)"/><path d="M51.18,122.172L51.096,128.255C51.013,134.339,50.846,146.505,50.837,158.172C50.829,169.839,50.977,181.005,51.052,186.589L51.126,192.172" id="my-svg-L_idle_timeout_0" class="edge-thickness-normal edge-pattern-solid edge-thickness-normal edge-pattern-solid flowchart-link" style=";" data-edge="true" data-et="edge" data-id="L_idle_timeout_0" data-points="W3sieCI6NTEuMTc5Njg3NSwieSI6MTIyLjE3MTg3NX0seyJ4Ijo1MC42Nzk2ODc1LCJ5IjoxNTguNjcxODc1fSx7IngiOjUxLjE3OTY4NzUsInkiOjE5Ni4xNzE4NzV9XQ==" data-look="classic" marker-end="url(#my-svg_flowchart-v2-pointEnd)"/></g><g class="edgeLabels"><g class="edgeLabel"><g class="label" data-id="L___start_idle_0" transform="translate(0, 0)"><foreignObject width="0" height="0"><div xmlns="http://www.w3.org/1999/xhtml" class="labelBkg" style="display: table-cell; white-space: nowrap; line-height: 1.5; max-width: 200px; text-align: center;"><span class="edgeLabel"></span></div></foreignObject></g></g><g class="edgeLabel" transform="translate(50.6796875, 158.671875)"><g class="label" data-id="L_idle_timeout_0" transform="translate(-42.6796875, -12)"><foreignObject width="85.359375" height="24"><div xmlns="http://www.w3.org/1999/xhtml" class="labelBkg" style="display: table-cell; white-space: nowrap; line-height: 1.5; max-width: 200px; text-align: center;"><span class="edgeLabel"><p>after 100ms</p></span></div></foreignObject></g></g></g><g class="nodes"><g class="node default" id="my-svg-flowchart-__start-0" data-look="classic" transform="translate(50.6796875, 20.3359375)"><circle class="basic label-container" style="" r="12.3359375" cx="0" cy="0"/><g class="label" style="" transform="translate(-4.8359375, -12)"><rect/><foreignObject width="9.671875" height="24"><div xmlns="http://www.w3.org/1999/xhtml" style="display: table-cell; white-space: nowrap; line-height: 1.5; max-width: 200px; text-align: center;"><span class="nodeLabel"><p>●</p></span></div></foreignObject></g></g><g class="node default" id="my-svg-flowchart-idle-2" data-look="classic" transform="translate(50.6796875, 102.171875)"><g class="basic label-container outer-path"><path d="M-6.3359375 -19.5 C-2.0046640139454768 -19.5, 2.3266094721090465 -19.5, 6.3359375 -19.5 C6.3359375 -19.5, 6.335937499999999 -19.5, 6.335937499999999 -19.5 C6.703872205963886 -19.488201050121198, 7.071806911927775 -19.476402100242396, 7.5853067896239 -19.45993515863156 C7.909387782860779 -19.428671454978417, 8.233468776097657 -19.39740775132527, 8.829542152847864 -19.3399052695533 C9.316173640528826 -19.261230464508593, 9.802805128209787 -19.182555659463887, 10.063530759676757 -19.140403561325776 C10.544778497181419 -19.030561905675313, 11.026026234686078 -18.92072025002485, 11.28220188623539 -18.862249829261074 C11.556181516836832 -18.780934113046996, 11.830161147438274 -18.699618396832914, 12.480547751460602 -18.50658706670804 C12.75631875204927 -18.405100789292224, 13.032089752637939 -18.30361451187641, 13.653644095147794 -18.074876768247425 C14.010382049356766 -17.916959458174535, 14.367120003565738 -17.75904214810165, 14.796670412792382 -17.568892924097174 C15.092116240601264 -17.414759024971364, 15.387562068410146 -17.260625125845557, 15.904929764076783 -16.990714730406097 C16.3091848670464 -16.745652911319233, 16.713439970016015 -16.500591092232373, 16.973868073605697 -16.342718045390892 C17.35067319790009 -16.07987510231406, 17.727478322194486 -15.817032159237222, 17.999092844578712 -15.627565626425154 C18.27034378970967 -15.411250215974015, 18.54159473484063 -15.194934805522873, 18.97639120850187 -14.848196188198123 C19.254287610210316 -14.595818028902386, 19.532184011918762 -14.343439869606646, 19.901747236767985 -14.007812326905688 C20.20177987577093 -13.69800399399737, 20.501812514773874 -13.388195661089052, 20.771358442968648 -13.10986736009568 C21.089651757354687 -12.735981921615178, 21.40794507174073 -12.362096483134673, 21.581651408126582 -12.158051136245305 C21.743127000637244 -11.941688553010124, 21.904602593147903 -11.725325969774945, 22.329296464640635 -11.156274872382312 C22.54322675420896 -10.827620499279096, 22.75715704377728 -10.498966126175878, 23.011221378604247 -10.108655082055241 C23.247570342017312 -9.6889935645876, 23.48391930543038 -9.26933204711996, 23.6246239742735 -9.019496659696287 C23.737907557443886 -8.784260875362602, 23.85119114061427 -8.549025091028916, 24.16698364880834 -7.893275190886684 C24.271156732066654 -7.635965661189101, 24.375329815324967 -7.378656131491519, 24.636071729970325 -6.734618561215508 C24.726998982960723 -6.460760162498779, 24.81792623595112 -6.186901763782052, 25.02996063421488 -5.548287939305138 C25.127468106578196 -5.176449687177979, 25.224975578941507 -4.8046114350508216, 25.34703178754556 -4.339158212148133 C25.401073339639005 -4.06166626383438, 25.455114891732446 -3.7841743155206267, 25.585982276581777 -3.1121979531509023 C25.62829721541919 -2.7840116435577267, 25.670612154256606 -2.455825333964551, 25.745830202509367 -1.872449005199798 C25.76220245775617 -1.6174379142842623, 25.778574713002975 -1.3624268233687267, 25.825918715913414 -0.6250057626472757 C25.825918715913414 -0.3443153411118267, 25.825918715913414 -0.06362491957637773, 25.825918715913414 0.625005762647271 C25.79720588682662 1.0722312522525725, 25.76849305773983 1.5194567418578742, 25.745830202509367 1.8724490051997846 C25.712369913812392 2.131960396852166, 25.678909625115416 2.391471788504547, 25.585982276581777 3.1121979531508885 C25.495234221011494 3.578170038895972, 25.404486165441206 4.044142124641056, 25.34703178754556 4.339158212148129 C25.2215425050919 4.817703233542994, 25.096053222638236 5.296248254937858, 25.029960634214884 5.548287939305125 C24.943188342505483 5.809632256646665, 24.856416050796085 6.0709765739882044, 24.63607172997033 6.734618561215495 C24.45895400692477 7.172102761476247, 24.281836283879212 7.6095869617369996, 24.166983648808344 7.893275190886679 C24.058364531720855 8.118825111595644, 23.949745414633366 8.34437503230461, 23.624623974273504 9.019496659696284 C23.42561459821623 9.372857958770489, 23.226605222158963 9.726219257844695, 23.01122137860425 10.108655082055236 C22.800203354999788 10.432835432585055, 22.589185331395328 10.757015783114872, 22.32929646464064 11.156274872382301 C22.102808995264066 11.459747447913983, 21.87632152588749 11.763220023445665, 21.581651408126582 12.158051136245302 C21.33106868497504 12.452399861419977, 21.0804859618235 12.746748586594652, 20.77135844296866 13.10986736009567 C20.59166936476171 13.29541108609203, 20.411980286554762 13.480954812088388, 19.90174723676799 14.007812326905684 C19.68826546889179 14.201690820072795, 19.47478370101559 14.395569313239907, 18.976391208501887 14.848196188198111 C18.673566520767242 15.089690818163115, 18.370741833032596 15.331185448128117, 17.999092844578715 15.627565626425152 C17.708057609806453 15.830579207490025, 17.41702237503419 16.0335927885549, 16.973868073605708 16.34271804539089 C16.62977210772236 16.55131104204172, 16.285676141839012 16.759904038692557, 15.904929764076787 16.990714730406093 C15.494480587040744 17.204845803160552, 15.084031410004702 17.41897687591501, 14.796670412792386 17.56889292409717 C14.420747929576711 17.73530265607249, 14.044825446361038 17.901712388047816, 13.653644095147804 18.07487676824742 C13.412657442801363 18.163562083967104, 13.171670790454922 18.25224739968679, 12.480547751460616 18.506587066708033 C12.144130293850065 18.606434002235574, 11.807712836239515 18.70628093776312, 11.282201886235413 18.86224982926107 C10.816500621408064 18.96854310397315, 10.350799356580714 19.074836378685234, 10.063530759676766 19.140403561325773 C9.623149818203077 19.211600936738034, 9.182768876729385 19.28279831215029, 8.829542152847878 19.3399052695533 C8.4224455560985 19.37917738863642, 8.015348959349122 19.418449507719544, 7.585306789623901 19.45993515863156 C7.217396733817057 19.471733318027805, 6.849486678010213 19.483531477424048, 6.3359375000000036 19.5 C6.335937500000003 19.5, 6.335937500000002 19.5, 6.3359375 19.5 C3.369116194521152 19.5, 0.40229488904230415 19.5, -6.3359374999999964 19.5 C-6.818559567246865 19.48452324967026, -7.301181634493735 19.469046499340518, -7.5853067896238935 19.45993515863156 C-7.9705307862365915 19.42277306297797, -8.355754782849289 19.385610967324382, -8.829542152847871 19.3399052695533 C-9.250787326742698 19.271801616643096, -9.672032500637524 19.203697963732893, -10.063530759676759 19.140403561325773 C-10.511842345847166 19.03807936728888, -10.960153932017572 18.935755173251987, -11.282201886235388 18.862249829261074 C-11.61395025073882 18.763788656059155, -11.945698615242252 18.66532748285724, -12.480547751460593 18.506587066708043 C-12.94748494153194 18.33474986444172, -13.414422131603287 18.162912662175394, -13.653644095147797 18.074876768247425 C-13.89670798383525 17.967279594959567, -14.139771872522703 17.85968242167171, -14.79667041279238 17.568892924097174 C-15.184045339384188 17.36679967301971, -15.571420265975993 17.16470642194225, -15.90492976407678 16.990714730406097 C-16.215588268582977 16.802391719342424, -16.526246773089177 16.61406870827875, -16.973868073605686 16.3427180453909 C-17.30395386549797 16.112464486150472, -17.634039657390257 15.882210926910046, -17.999092844578712 15.627565626425156 C-18.204142031149942 15.464044356722617, -18.40919121772117 15.30052308702008, -18.97639120850187 14.848196188198125 C-19.206830560527855 14.63891726577927, -19.437269912553838 14.429638343360415, -19.901747236767974 14.007812326905697 C-20.20338719489625 13.69634430503712, -20.505027153024532 13.384876283168543, -20.771358442968655 13.109867360095677 C-21.06276192309011 12.767568251017268, -21.354165403211567 12.425269141938857, -21.58165140812658 12.158051136245307 C-21.78664358228142 11.883380298049067, -21.991635756436267 11.608709459852829, -22.329296464640635 11.156274872382316 C-22.566304264858587 10.79216724574197, -22.80331206507654 10.428059619101624, -23.011221378604244 10.108655082055249 C-23.25307439583018 9.679220559696974, -23.494927413056114 9.2497860373387, -23.6246239742735 9.019496659696289 C-23.808367074947668 8.637950179673837, -23.992110175621836 8.256403699651383, -24.16698364880834 7.893275190886686 C-24.342444910740888 7.459882481600576, -24.51790617267343 7.0264897723144655, -24.636071729970325 6.73461856121551 C-24.75959904299053 6.362573975803195, -24.883126356010735 5.990529390390881, -25.02996063421488 5.5482879393051325 C-25.140748860555888 5.125804416345834, -25.2515370868969 4.703320893386534, -25.347031787545557 4.339158212148136 C-25.440199610266752 3.8607611335011085, -25.533367432987948 3.382364054854081, -25.585982276581777 3.112197953150904 C-25.624771391274248 2.81135723937317, -25.66356050596672 2.510516525595436, -25.745830202509364 1.872449005199809 C-25.7635922430253 1.5957908869030644, -25.781354283541233 1.31913276860632, -25.825918715913414 0.6250057626472781 C-25.825918715913414 0.2292084142607665, -25.825918715913414 -0.16658893412574516, -25.825918715913414 -0.6250057626472687 C-25.80773521815172 -0.9082284177408775, -25.789551720390026 -1.1914510728344863, -25.745830202509367 -1.8724490051997822 C-25.695309355669053 -2.2642787168236373, -25.64478850882874 -2.6561084284474923, -25.585982276581777 -3.112197953150895 C-25.499624209093753 -3.555628377917879, -25.413266141605728 -3.9990588026848624, -25.34703178754556 -4.339158212148126 C-25.2298604376108 -4.785983351833666, -25.11268908767604 -5.232808491519206, -25.029960634214884 -5.548287939305123 C-24.91733363723647 -5.887502509529069, -24.804706640258058 -6.2267170797530165, -24.636071729970332 -6.734618561215485 C-24.481642633925453 -7.116061414129796, -24.327213537880574 -7.497504267044109, -24.166983648808344 -7.893275190886676 C-23.994898258585525 -8.250614185721858, -23.822812868362707 -8.60795318055704, -23.624623974273504 -9.019496659696282 C-23.39606289645037 -9.425329997690069, -23.167501818627237 -9.831163335683858, -23.011221378604247 -10.108655082055243 C-22.81549181562968 -10.409348251531036, -22.619762252655114 -10.710041421006828, -22.32929646464064 -11.156274872382308 C-22.098645236863934 -11.465326504843972, -21.867994009087226 -11.774378137305638, -21.581651408126586 -12.158051136245302 C-21.341867698614433 -12.439714725517867, -21.102083989102283 -12.721378314790432, -20.771358442968662 -13.10986736009567 C-20.530974599330055 -13.358083414533132, -20.290590755691447 -13.606299468970594, -19.901747236767996 -14.007812326905677 C-19.62479975960161 -14.259328698039484, -19.347852282435223 -14.510845069173293, -18.976391208501887 -14.848196188198107 C-18.70985334682634 -15.060753040013978, -18.44331548515079 -15.273309891829848, -17.99909284457872 -15.627565626425149 C-17.62854286774246 -15.88604524941616, -17.257992890906202 -16.14452487240717, -16.97386807360571 -16.342718045390885 C-16.598963695362233 -16.56998728266476, -16.224059317118755 -16.797256519938628, -15.904929764076789 -16.99071473040609 C-15.610999698494302 -17.14405785734928, -15.317069632911817 -17.297400984292473, -14.79667041279239 -17.56889292409717 C-14.382884051325112 -17.752063871782436, -13.969097689857833 -17.935234819467702, -13.653644095147806 -18.07487676824742 C-13.21436688136236 -18.236534843554516, -12.775089667576912 -18.39819291886161, -12.480547751460618 -18.506587066708033 C-12.079056441030335 -18.625747580172845, -11.677565130600053 -18.74490809363766, -11.282201886235413 -18.862249829261067 C-11.021527048753297 -18.921747159854075, -10.760852211271184 -18.98124449044708, -10.063530759676768 -19.140403561325773 C-9.726476872655798 -19.194895819887392, -9.389422985634827 -19.24938807844901, -8.82954215284788 -19.3399052695533 C-8.542027116708834 -19.367641499302213, -8.254512080569786 -19.395377729051123, -7.585306789623903 -19.45993515863156 C-7.213590222526074 -19.47185538543598, -6.8418736554282455 -19.483775612240404, -6.335937500000006 -19.5 C-6.3359375000000036 -19.5, -6.335937500000002 -19.5, -6.3359375 -19.5" stroke="none" stroke-width="0" fill="#ECECFF" style=""/><path d="M-6.3359375 -19.5 C-2.2558601303174717 -19.5, 1.8242172393650566 -19.5, 6.3359375 -19.5 M-6.3359375 -19.5 C-1.7524089401573049 -19.5, 2.8311196196853903 -19.5, 6.3359375 -19.5 M6.3359375 -19.5 C6.3359375 -19.5, 6.335937499999999 -19.5, 6.335937499999999 -19.5 M6.3359375 -19.5 C6.3359375 -19.5, 6.335937499999999 -19.5, 6.335937499999999 -19.5 M6.335937499999999 -19.5 C6.731589581339571 -19.487312207841498, 7.127241662679142 -19.474624415682996, 7.5853067896239 -19.45993515863156 M6.335937499999999 -19.5 C6.762610479986067 -19.486317428000422, 7.1892834599721365 -19.47263485600084, 7.5853067896239 -19.45993515863156 M7.5853067896239 -19.45993515863156 C7.919858915143003 -19.427661317440528, 8.254411040662106 -19.3953874762495, 8.829542152847864 -19.3399052695533 M7.5853067896239 -19.45993515863156 C7.941660946848534 -19.425558101662677, 8.29801510407317 -19.39118104469379, 8.829542152847864 -19.3399052695533 M8.829542152847864 -19.3399052695533 C9.300236986145329 -19.263806979198716, 9.770931819442792 -19.187708688844133, 10.063530759676757 -19.140403561325776 M8.829542152847864 -19.3399052695533 C9.082182766268764 -19.29906029443263, 9.334823379689663 -19.258215319311955, 10.063530759676757 -19.140403561325776 M10.063530759676757 -19.140403561325776 C10.452523609282073 -19.051618481818934, 10.841516458887389 -18.96283340231209, 11.28220188623539 -18.862249829261074 M10.063530759676757 -19.140403561325776 C10.54795053668377 -19.02983790835839, 11.032370313690784 -18.91927225539101, 11.28220188623539 -18.862249829261074 M11.28220188623539 -18.862249829261074 C11.732096438209394 -18.728723487779884, 12.1819909901834 -18.595197146298695, 12.480547751460602 -18.50658706670804 M11.28220188623539 -18.862249829261074 C11.564761528835973 -18.77838761052305, 11.847321171436555 -18.694525391785028, 12.480547751460602 -18.50658706670804 M12.480547751460602 -18.50658706670804 C12.83393286106903 -18.376538079715996, 13.187317970677459 -18.246489092723948, 13.653644095147794 -18.074876768247425 M12.480547751460602 -18.50658706670804 C12.88821453115165 -18.356561923351332, 13.295881310842697 -18.206536779994625, 13.653644095147794 -18.074876768247425 M13.653644095147794 -18.074876768247425 C13.980073028750635 -17.93037636251172, 14.306501962353474 -17.785875956776014, 14.796670412792382 -17.568892924097174 M13.653644095147794 -18.074876768247425 C14.040016368456856 -17.903841224179768, 14.42638864176592 -17.732805680112115, 14.796670412792382 -17.568892924097174 M14.796670412792382 -17.568892924097174 C15.075719076025853 -17.423313415227472, 15.354767739259323 -17.27773390635777, 15.904929764076783 -16.990714730406097 M14.796670412792382 -17.568892924097174 C15.031339398110582 -17.446466264769327, 15.266008383428781 -17.32403960544148, 15.904929764076783 -16.990714730406097 M15.904929764076783 -16.990714730406097 C16.33242973178069 -16.73156173771532, 16.759929699484598 -16.47240874502454, 16.973868073605697 -16.342718045390892 M15.904929764076783 -16.990714730406097 C16.126229401610775 -16.856561589631966, 16.347529039144767 -16.722408448857834, 16.973868073605697 -16.342718045390892 M16.973868073605697 -16.342718045390892 C17.371479249899345 -16.065361701118853, 17.769090426192996 -15.78800535684681, 17.999092844578712 -15.627565626425154 M16.973868073605697 -16.342718045390892 C17.23333893341413 -16.161722405901017, 17.492809793222563 -15.980726766411143, 17.999092844578712 -15.627565626425154 M17.999092844578712 -15.627565626425154 C18.34492818324717 -15.351771146901925, 18.690763521915628 -15.075976667378695, 18.97639120850187 -14.848196188198123 M17.999092844578712 -15.627565626425154 C18.337039887969972 -15.358061852469136, 18.674986931361232 -15.088558078513119, 18.97639120850187 -14.848196188198123 M18.97639120850187 -14.848196188198123 C19.218407620175896 -14.628403286519129, 19.460424031849925 -14.408610384840134, 19.901747236767985 -14.007812326905688 M18.97639120850187 -14.848196188198123 C19.2923437565682 -14.56125644369061, 19.60829630463453 -14.274316699183098, 19.901747236767985 -14.007812326905688 M19.901747236767985 -14.007812326905688 C20.21966488493227 -13.679536253651726, 20.537582533096554 -13.351260180397764, 20.771358442968648 -13.10986736009568 M19.901747236767985 -14.007812326905688 C20.181432075702126 -13.719014768153865, 20.461116914636264 -13.430217209402045, 20.771358442968648 -13.10986736009568 M20.771358442968648 -13.10986736009568 C20.97436561785329 -12.87140358104069, 21.177372792737938 -12.632939801985698, 21.581651408126582 -12.158051136245305 M20.771358442968648 -13.10986736009568 C21.062088543855708 -12.768359240582358, 21.35281864474277 -12.426851121069037, 21.581651408126582 -12.158051136245305 M21.581651408126582 -12.158051136245305 C21.830032374512413 -11.825243269259827, 22.078413340898244 -11.492435402274351, 22.329296464640635 -11.156274872382312 M21.581651408126582 -12.158051136245305 C21.846371359403186 -11.80335051801834, 22.11109131067979 -11.448649899791373, 22.329296464640635 -11.156274872382312 M22.329296464640635 -11.156274872382312 C22.52093939355668 -10.861859870235307, 22.712582322472727 -10.567444868088302, 23.011221378604247 -10.108655082055241 M22.329296464640635 -11.156274872382312 C22.530556093146906 -10.847086037219306, 22.731815721653174 -10.5378972020563, 23.011221378604247 -10.108655082055241 M23.011221378604247 -10.108655082055241 C23.1527784098513 -9.857306238872336, 23.294335441098355 -9.605957395689432, 23.6246239742735 -9.019496659696287 M23.011221378604247 -10.108655082055241 C23.199020118169543 -9.77519940327258, 23.386818857734838 -9.44174372448992, 23.6246239742735 -9.019496659696287 M23.6246239742735 -9.019496659696287 C23.743948858637058 -8.771715984171838, 23.86327374300062 -8.523935308647388, 24.16698364880834 -7.893275190886684 M23.6246239742735 -9.019496659696287 C23.821069130960574 -8.611574088582572, 24.01751428764765 -8.203651517468858, 24.16698364880834 -7.893275190886684 M24.16698364880834 -7.893275190886684 C24.351047534537532 -7.438633834502441, 24.535111420266727 -6.983992478118197, 24.636071729970325 -6.734618561215508 M24.16698364880834 -7.893275190886684 C24.336709405815174 -7.474049289655531, 24.506435162822005 -7.054823388424377, 24.636071729970325 -6.734618561215508 M24.636071729970325 -6.734618561215508 C24.757994451475398 -6.367406749789829, 24.879917172980473 -6.000194938364151, 25.02996063421488 -5.548287939305138 M24.636071729970325 -6.734618561215508 C24.733200302374104 -6.442082776471743, 24.830328874777884 -6.149546991727978, 25.02996063421488 -5.548287939305138 M25.02996063421488 -5.548287939305138 C25.115143035549966 -5.223450524728186, 25.200325436885052 -4.898613110151235, 25.34703178754556 -4.339158212148133 M25.02996063421488 -5.548287939305138 C25.128653953516046 -5.171927538854632, 25.227347272817212 -4.795567138404127, 25.34703178754556 -4.339158212148133 M25.34703178754556 -4.339158212148133 C25.41401127466872 -3.9952327018903193, 25.480990761791883 -3.651307191632505, 25.585982276581777 -3.1121979531509023 M25.34703178754556 -4.339158212148133 C25.395765066959527 -4.0889231221396685, 25.444498346373493 -3.8386880321312047, 25.585982276581777 -3.1121979531509023 M25.585982276581777 -3.1121979531509023 C25.632039131936754 -2.754990077972494, 25.678095987291734 -2.3977822027940854, 25.745830202509367 -1.872449005199798 M25.585982276581777 -3.1121979531509023 C25.62550961758957 -2.805631701850806, 25.665036958597366 -2.4990654505507095, 25.745830202509367 -1.872449005199798 M25.745830202509367 -1.872449005199798 C25.770044714774315 -1.4952884310707182, 25.794259227039262 -1.1181278569416382, 25.825918715913414 -0.6250057626472757 M25.745830202509367 -1.872449005199798 C25.770135662940945 -1.493871839963445, 25.79444112337252 -1.1152946747270922, 25.825918715913414 -0.6250057626472757 M25.825918715913414 -0.6250057626472757 C25.825918715913414 -0.3099463725442164, 25.825918715913414 0.005113017558842858, 25.825918715913414 0.625005762647271 M25.825918715913414 -0.6250057626472757 C25.825918715913414 -0.18882874630590651, 25.825918715913414 0.24734827003546267, 25.825918715913414 0.625005762647271 M25.825918715913414 0.625005762647271 C25.80218428159931 0.9946887351799933, 25.778449847285206 1.3643717077127155, 25.745830202509367 1.8724490051997846 M25.825918715913414 0.625005762647271 C25.808833472729408 0.8911222161982338, 25.791748229545405 1.1572386697491965, 25.745830202509367 1.8724490051997846 M25.745830202509367 1.8724490051997846 C25.687848503083767 2.3221436161631277, 25.629866803658167 2.7718382271264708, 25.585982276581777 3.1121979531508885 M25.745830202509367 1.8724490051997846 C25.68996705242598 2.305712565819812, 25.63410390234259 2.73897612643984, 25.585982276581777 3.1121979531508885 M25.585982276581777 3.1121979531508885 C25.530033241840755 3.3994844217133546, 25.474084207099736 3.6867708902758207, 25.34703178754556 4.339158212148129 M25.585982276581777 3.1121979531508885 C25.50174127673106 3.54475768304271, 25.41750027688034 3.9773174129345317, 25.34703178754556 4.339158212148129 M25.34703178754556 4.339158212148129 C25.249010204986785 4.71295698926736, 25.150988622428006 5.086755766386591, 25.029960634214884 5.548287939305125 M25.34703178754556 4.339158212148129 C25.228675389182698 4.790502455093258, 25.110318990819835 5.241846698038387, 25.029960634214884 5.548287939305125 M25.029960634214884 5.548287939305125 C24.92136707440362 5.8753544394225665, 24.81277351459235 6.2024209395400085, 24.63607172997033 6.734618561215495 M25.029960634214884 5.548287939305125 C24.91412307065749 5.897172224530654, 24.79828550710009 6.246056509756183, 24.63607172997033 6.734618561215495 M24.63607172997033 6.734618561215495 C24.522124566898494 7.016070257021453, 24.408177403826663 7.2975219528274105, 24.166983648808344 7.893275190886679 M24.63607172997033 6.734618561215495 C24.46038586276047 7.168566049879018, 24.28469999555061 7.602513538542541, 24.166983648808344 7.893275190886679 M24.166983648808344 7.893275190886679 C23.968246981781572 8.305956132251245, 23.7695103147548 8.71863707361581, 23.624623974273504 9.019496659696284 M24.166983648808344 7.893275190886679 C24.032722729217195 8.172070863141178, 23.898461809626045 8.450866535395676, 23.624623974273504 9.019496659696284 M23.624623974273504 9.019496659696284 C23.39883744573269 9.420403504485733, 23.173050917191873 9.821310349275182, 23.01122137860425 10.108655082055236 M23.624623974273504 9.019496659696284 C23.49217981710176 9.254664672179912, 23.359735659930017 9.48983268466354, 23.01122137860425 10.108655082055236 M23.01122137860425 10.108655082055236 C22.848604159060155 10.358478800112628, 22.68598693951606 10.60830251817002, 22.32929646464064 11.156274872382301 M23.01122137860425 10.108655082055236 C22.814565679454528 10.410771045398453, 22.617909980304802 10.71288700874167, 22.32929646464064 11.156274872382301 M22.32929646464064 11.156274872382301 C22.141048830036908 11.40850955303899, 21.952801195433175 11.660744233695677, 21.581651408126582 12.158051136245302 M22.32929646464064 11.156274872382301 C22.057402121596642 11.52058852197704, 21.785507778552645 11.88490217157178, 21.581651408126582 12.158051136245302 M21.581651408126582 12.158051136245302 C21.399880924533065 12.371569089307771, 21.218110440939544 12.58508704237024, 20.77135844296866 13.10986736009567 M21.581651408126582 12.158051136245302 C21.36609867219518 12.411251645168463, 21.150545936263775 12.664452154091624, 20.77135844296866 13.10986736009567 M20.77135844296866 13.10986736009567 C20.510289761001037 13.37944220836465, 20.24922107903342 13.649017056633626, 19.90174723676799 14.007812326905684 M20.77135844296866 13.10986736009567 C20.555959727813963 13.332284218056296, 20.34056101265927 13.554701076016922, 19.90174723676799 14.007812326905684 M19.90174723676799 14.007812326905684 C19.66151467967335 14.225985179053884, 19.421282122578713 14.444158031202084, 18.976391208501887 14.848196188198111 M19.90174723676799 14.007812326905684 C19.555650918342106 14.322127846093284, 19.209554599916228 14.636443365280885, 18.976391208501887 14.848196188198111 M18.976391208501887 14.848196188198111 C18.664729381760413 15.096738201354915, 18.35306755501894 15.345280214511721, 17.999092844578715 15.627565626425152 M18.976391208501887 14.848196188198111 C18.720758551303206 15.05205642964336, 18.46512589410452 15.255916671088606, 17.999092844578715 15.627565626425152 M17.999092844578715 15.627565626425152 C17.747299083801238 15.803206053967294, 17.49550532302376 15.978846481509436, 16.973868073605708 16.34271804539089 M17.999092844578715 15.627565626425152 C17.776682246681723 15.782709631518486, 17.554271648784734 15.937853636611822, 16.973868073605708 16.34271804539089 M16.973868073605708 16.34271804539089 C16.614764456083382 16.56040876866002, 16.255660838561056 16.778099491929154, 15.904929764076787 16.990714730406093 M16.973868073605708 16.34271804539089 C16.581749915201904 16.58042237735735, 16.189631756798097 16.818126709323817, 15.904929764076787 16.990714730406093 M15.904929764076787 16.990714730406093 C15.676195421080413 17.110045290635963, 15.44746107808404 17.229375850865832, 14.796670412792386 17.56889292409717 M15.904929764076787 16.990714730406093 C15.59190048589029 17.154021904331167, 15.278871207703796 17.31732907825624, 14.796670412792386 17.56889292409717 M14.796670412792386 17.56889292409717 C14.475818201826376 17.71092468014915, 14.154965990860367 17.85295643620113, 13.653644095147804 18.07487676824742 M14.796670412792386 17.56889292409717 C14.405437205566042 17.742080259415527, 14.014203998339697 17.91526759473388, 13.653644095147804 18.07487676824742 M13.653644095147804 18.07487676824742 C13.237559776075752 18.227999643907218, 12.821475457003698 18.381122519567015, 12.480547751460616 18.506587066708033 M13.653644095147804 18.07487676824742 C13.213768646687928 18.236754999444727, 12.77389319822805 18.398633230642034, 12.480547751460616 18.506587066708033 M12.480547751460616 18.506587066708033 C12.077718133851395 18.62614478271864, 11.674888516242172 18.745702498729248, 11.282201886235413 18.86224982926107 M12.480547751460616 18.506587066708033 C12.118096339005103 18.61416074337854, 11.755644926549591 18.721734420049053, 11.282201886235413 18.86224982926107 M11.282201886235413 18.86224982926107 C10.875223363908384 18.95514002119916, 10.468244841581356 19.04803021313725, 10.063530759676766 19.140403561325773 M11.282201886235413 18.86224982926107 C10.994155201603476 18.927994605348026, 10.70610851697154 18.993739381434985, 10.063530759676766 19.140403561325773 M10.063530759676766 19.140403561325773 C9.719479621791193 19.196027081142688, 9.37542848390562 19.251650600959607, 8.829542152847878 19.3399052695533 M10.063530759676766 19.140403561325773 C9.654084407186355 19.206599672292537, 9.244638054695942 19.272795783259298, 8.829542152847878 19.3399052695533 M8.829542152847878 19.3399052695533 C8.471944397800774 19.37440229490847, 8.11434664275367 19.408899320263643, 7.585306789623901 19.45993515863156 M8.829542152847878 19.3399052695533 C8.44947137317816 19.376570240566046, 8.069400593508442 19.413235211578797, 7.585306789623901 19.45993515863156 M7.585306789623901 19.45993515863156 C7.2774885038653805 19.469806291923888, 6.96967021810686 19.479677425216217, 6.3359375000000036 19.5 M7.585306789623901 19.45993515863156 C7.244897979300741 19.47085140661307, 6.904489168977581 19.481767654594577, 6.3359375000000036 19.5 M6.3359375000000036 19.5 C6.335937500000003 19.5, 6.335937500000001 19.5, 6.3359375 19.5 M6.3359375000000036 19.5 C6.335937500000003 19.5, 6.335937500000001 19.5, 6.3359375 19.5 M6.3359375 19.5 C3.4411200797849855 19.5, 0.5463026595699709 19.5, -6.3359374999999964 19.5 M6.3359375 19.5 C2.398504172664318 19.5, -1.5389291546713642 19.5, -6.3359374999999964 19.5 M-6.3359374999999964 19.5 C-6.72478833585375 19.487530310546408, -7.113639171707503 19.475060621092815, -7.5853067896238935 19.45993515863156 M-6.3359374999999964 19.5 C-6.6055647432967 19.491353579105066, -6.8751919865934035 19.482707158210133, -7.5853067896238935 19.45993515863156 M-7.5853067896238935 19.45993515863156 C-7.906777865040466 19.428923230611655, -8.22824894045704 19.39791130259175, -8.829542152847871 19.3399052695533 M-7.5853067896238935 19.45993515863156 C-7.923349541382386 19.42732458092531, -8.26139229314088 19.394714003219057, -8.829542152847871 19.3399052695533 M-8.829542152847871 19.3399052695533 C-9.249425968091137 19.272021710552387, -9.669309783334404 19.204138151551472, -10.063530759676759 19.140403561325773 M-8.829542152847871 19.3399052695533 C-9.26201563507413 19.2699863108289, -9.69448911730039 19.200067352104504, -10.063530759676759 19.140403561325773 M-10.063530759676759 19.140403561325773 C-10.459491724528252 19.05002805498519, -10.855452689379746 18.959652548644613, -11.282201886235388 18.862249829261074 M-10.063530759676759 19.140403561325773 C-10.428344820092326 19.057137132670146, -10.79315888050789 18.97387070401452, -11.282201886235388 18.862249829261074 M-11.282201886235388 18.862249829261074 C-11.610574075887458 18.764790687033138, -11.938946265539528 18.6673315448052, -12.480547751460593 18.506587066708043 M-11.282201886235388 18.862249829261074 C-11.669273422853568 18.747369028972756, -12.05634495947175 18.632488228684437, -12.480547751460593 18.506587066708043 M-12.480547751460593 18.506587066708043 C-12.831641558127183 18.377381300379167, -13.182735364793773 18.24817553405029, -13.653644095147797 18.074876768247425 M-12.480547751460593 18.506587066708043 C-12.73929887855961 18.411364260066406, -12.998050005658628 18.31614145342477, -13.653644095147797 18.074876768247425 M-13.653644095147797 18.074876768247425 C-13.949693595468409 17.94382443645189, -14.245743095789022 17.812772104656357, -14.79667041279238 17.568892924097174 M-13.653644095147797 18.074876768247425 C-14.094105208955519 17.87989769897946, -14.534566322763238 17.684918629711493, -14.79667041279238 17.568892924097174 M-14.79667041279238 17.568892924097174 C-15.133743428028355 17.393042147954137, -15.470816443264328 17.2171913718111, -15.90492976407678 16.990714730406097 M-14.79667041279238 17.568892924097174 C-15.191745729004616 17.36278238468707, -15.58682104521685 17.156671845276964, -15.90492976407678 16.990714730406097 M-15.90492976407678 16.990714730406097 C-16.210866746304582 16.805253933894335, -16.516803728532384 16.61979313738257, -16.973868073605686 16.3427180453909 M-15.90492976407678 16.990714730406097 C-16.118930533103658 16.860986206613894, -16.332931302130536 16.73125768282169, -16.973868073605686 16.3427180453909 M-16.973868073605686 16.3427180453909 C-17.311502992946927 16.107198541638542, -17.649137912288168 15.871679037886183, -17.999092844578712 15.627565626425156 M-16.973868073605686 16.3427180453909 C-17.344944958452263 16.083870874181372, -17.716021843298844 15.825023702971844, -17.999092844578712 15.627565626425156 M-17.999092844578712 15.627565626425156 C-18.311170068035477 15.37869234544208, -18.623247291492238 15.129819064459003, -18.97639120850187 14.848196188198125 M-17.999092844578712 15.627565626425156 C-18.375550430197716 15.327350719851081, -18.75200801581672 15.027135813277006, -18.97639120850187 14.848196188198125 M-18.97639120850187 14.848196188198125 C-19.286345420377632 14.566703973911606, -19.596299632253395 14.285211759625087, -19.901747236767974 14.007812326905697 M-18.97639120850187 14.848196188198125 C-19.197201591072353 14.647662041070186, -19.418011973642837 14.447127893942245, -19.901747236767974 14.007812326905697 M-19.901747236767974 14.007812326905697 C-20.17982887642604 13.720670203031531, -20.45791051608411 13.433528079157366, -20.771358442968655 13.109867360095677 M-19.901747236767974 14.007812326905697 C-20.10159753330127 13.801450487720576, -20.30144782983457 13.595088648535457, -20.771358442968655 13.109867360095677 M-20.771358442968655 13.109867360095677 C-20.957331147773736 12.891413238884947, -21.143303852578814 12.672959117674218, -21.58165140812658 12.158051136245307 M-20.771358442968655 13.109867360095677 C-21.02195108246161 12.815506986622122, -21.272543721954563 12.521146613148566, -21.58165140812658 12.158051136245307 M-21.58165140812658 12.158051136245307 C-21.813211179931944 11.847782137555306, -22.04477095173731 11.537513138865304, -22.329296464640635 11.156274872382316 M-21.58165140812658 12.158051136245307 C-21.8065541711739 11.856701922825112, -22.031456934221218 11.555352709404916, -22.329296464640635 11.156274872382316 M-22.329296464640635 11.156274872382316 C-22.469941129187916 10.940206899257191, -22.610585793735194 10.724138926132067, -23.011221378604244 10.108655082055249 M-22.329296464640635 11.156274872382316 C-22.587922633444602 10.75895562624906, -22.846548802248574 10.361636380115804, -23.011221378604244 10.108655082055249 M-23.011221378604244 10.108655082055249 C-23.220324002475216 9.73737219943565, -23.429426626346185 9.366089316816053, -23.6246239742735 9.019496659696289 M-23.011221378604244 10.108655082055249 C-23.161858455072238 9.841183699128282, -23.312495531540236 9.573712316201313, -23.6246239742735 9.019496659696289 M-23.6246239742735 9.019496659696289 C-23.78488776678122 8.686705465458175, -23.945151559288945 8.353914271220061, -24.16698364880834 7.893275190886686 M-23.6246239742735 9.019496659696289 C-23.74217326859258 8.775403034890743, -23.859722562911656 8.5313094100852, -24.16698364880834 7.893275190886686 M-24.16698364880834 7.893275190886686 C-24.307134190397335 7.547100643535483, -24.44728473198633 7.200926096184279, -24.636071729970325 6.73461856121551 M-24.16698364880834 7.893275190886686 C-24.322416336857998 7.509353446317447, -24.477849024907652 7.125431701748207, -24.636071729970325 6.73461856121551 M-24.636071729970325 6.73461856121551 C-24.775930429314407 6.313386442248715, -24.915789128658492 5.892154323281922, -25.02996063421488 5.5482879393051325 M-24.636071729970325 6.73461856121551 C-24.754179402839988 6.378897068434229, -24.872287075709654 6.0231755756529495, -25.02996063421488 5.5482879393051325 M-25.02996063421488 5.5482879393051325 C-25.15455260810808 5.073164744347297, -25.27914458200128 4.598041549389461, -25.347031787545557 4.339158212148136 M-25.02996063421488 5.5482879393051325 C-25.149594096140767 5.09207369951135, -25.26922755806665 4.635859459717568, -25.347031787545557 4.339158212148136 M-25.347031787545557 4.339158212148136 C-25.43241972708207 3.900709189375551, -25.517807666618587 3.4622601666029658, -25.585982276581777 3.112197953150904 M-25.347031787545557 4.339158212148136 C-25.440719309053527 3.858092590069395, -25.534406830561498 3.377026967990654, -25.585982276581777 3.112197953150904 M-25.585982276581777 3.112197953150904 C-25.630225600418058 2.769055470309192, -25.67446892425434 2.4259129874674796, -25.745830202509364 1.872449005199809 M-25.585982276581777 3.112197953150904 C-25.62602620197346 2.801625175380495, -25.66607012736514 2.491052397610086, -25.745830202509364 1.872449005199809 M-25.745830202509364 1.872449005199809 C-25.77095681590029 1.481081719798839, -25.79608342929122 1.089714434397869, -25.825918715913414 0.6250057626472781 M-25.745830202509364 1.872449005199809 C-25.773244554366766 1.4454483465542662, -25.800658906224164 1.0184476879087234, -25.825918715913414 0.6250057626472781 M-25.825918715913414 0.6250057626472781 C-25.825918715913414 0.14724058577375204, -25.825918715913414 -0.33052459109977406, -25.825918715913414 -0.6250057626472687 M-25.825918715913414 0.6250057626472781 C-25.825918715913414 0.32125090072395895, -25.825918715913414 0.017496038800639768, -25.825918715913414 -0.6250057626472687 M-25.825918715913414 -0.6250057626472687 C-25.79685666858099 -1.077670608312154, -25.767794621248566 -1.5303354539770395, -25.745830202509367 -1.8724490051997822 M-25.825918715913414 -0.6250057626472687 C-25.79768229438901 -1.0648108199190869, -25.76944587286461 -1.504615877190905, -25.745830202509367 -1.8724490051997822 M-25.745830202509367 -1.8724490051997822 C-25.701445752729132 -2.2166860329943128, -25.6570613029489 -2.560923060788843, -25.585982276581777 -3.112197953150895 M-25.745830202509367 -1.8724490051997822 C-25.690215444021984 -2.3037860896516866, -25.634600685534597 -2.735123174103591, -25.585982276581777 -3.112197953150895 M-25.585982276581777 -3.112197953150895 C-25.53011777561676 -3.399050358639809, -25.47425327465174 -3.6859027641287225, -25.34703178754556 -4.339158212148126 M-25.585982276581777 -3.112197953150895 C-25.532354702244163 -3.387564213182697, -25.47872712790655 -3.662930473214499, -25.34703178754556 -4.339158212148126 M-25.34703178754556 -4.339158212148126 C-25.237650048920813 -4.756278187869688, -25.128268310296065 -5.1733981635912505, -25.029960634214884 -5.548287939305123 M-25.34703178754556 -4.339158212148126 C-25.27899253275206 -4.598621379075301, -25.210953277958563 -4.858084546002477, -25.029960634214884 -5.548287939305123 M-25.029960634214884 -5.548287939305123 C-24.893764248364306 -5.95848975353989, -24.757567862513728 -6.368691567774658, -24.636071729970332 -6.734618561215485 M-25.029960634214884 -5.548287939305123 C-24.912810123166626 -5.901126613183356, -24.795659612118367 -6.253965287061589, -24.636071729970332 -6.734618561215485 M-24.636071729970332 -6.734618561215485 C-24.503657935280007 -7.06168319414715, -24.37124414058968 -7.388747827078815, -24.166983648808344 -7.893275190886676 M-24.636071729970332 -6.734618561215485 C-24.469266776644854 -7.146630020883801, -24.302461823319373 -7.558641480552119, -24.166983648808344 -7.893275190886676 M-24.166983648808344 -7.893275190886676 C-24.05290400606391 -8.130164009958825, -23.938824363319473 -8.367052829030975, -23.624623974273504 -9.019496659696282 M-24.166983648808344 -7.893275190886676 C-24.022584630052382 -8.19312284297748, -23.87818561129642 -8.492970495068286, -23.624623974273504 -9.019496659696282 M-23.624623974273504 -9.019496659696282 C-23.390834694108147 -9.43461320036158, -23.15704541394279 -9.84972974102688, -23.011221378604247 -10.108655082055243 M-23.624623974273504 -9.019496659696282 C-23.392653726085722 -9.431383324888435, -23.16068347789794 -9.84326999008059, -23.011221378604247 -10.108655082055243 M-23.011221378604247 -10.108655082055243 C-22.749522322869378 -10.51069510770004, -22.48782326713451 -10.912735133344837, -22.32929646464064 -11.156274872382308 M-23.011221378604247 -10.108655082055243 C-22.858110523914583 -10.343874470879838, -22.70499966922492 -10.579093859704432, -22.32929646464064 -11.156274872382308 M-22.32929646464064 -11.156274872382308 C-22.088756643099345 -11.4785763196191, -21.848216821558047 -11.80087776685589, -21.581651408126586 -12.158051136245302 M-22.32929646464064 -11.156274872382308 C-22.139485651310476 -11.410604070123902, -21.94967483798031 -11.664933267865498, -21.581651408126586 -12.158051136245302 M-21.581651408126586 -12.158051136245302 C-21.294971793480844 -12.49480132414038, -21.0082921788351 -12.831551512035457, -20.771358442968662 -13.10986736009567 M-21.581651408126586 -12.158051136245302 C-21.27468596392295 -12.51863021383548, -20.967720519719315 -12.879209291425662, -20.771358442968662 -13.10986736009567 M-20.771358442968662 -13.10986736009567 C-20.452964637097974 -13.438635105274766, -20.134570831227286 -13.767402850453863, -19.901747236767996 -14.007812326905677 M-20.771358442968662 -13.10986736009567 C-20.511371277497904 -13.378325453787483, -20.251384112027143 -13.646783547479295, -19.901747236767996 -14.007812326905677 M-19.901747236767996 -14.007812326905677 C-19.623343999694907 -14.260650780669454, -19.344940762621817 -14.513489234433234, -18.976391208501887 -14.848196188198107 M-19.901747236767996 -14.007812326905677 C-19.61009293426264 -14.272685047691064, -19.318438631757278 -14.537557768476452, -18.976391208501887 -14.848196188198107 M-18.976391208501887 -14.848196188198107 C-18.644740807031216 -15.112678557783134, -18.313090405560548 -15.37716092736816, -17.99909284457872 -15.627565626425149 M-18.976391208501887 -14.848196188198107 C-18.6988635094214 -15.06951714289256, -18.421335810340917 -15.290838097587011, -17.99909284457872 -15.627565626425149 M-17.99909284457872 -15.627565626425149 C-17.778991592163983 -15.781098732080018, -17.558890339749244 -15.934631837734885, -16.97386807360571 -16.342718045390885 M-17.99909284457872 -15.627565626425149 C-17.7153572122103 -15.825487320847795, -17.431621579841885 -16.023409015270442, -16.97386807360571 -16.342718045390885 M-16.97386807360571 -16.342718045390885 C-16.70411999903599 -16.506240913410693, -16.434371924466266 -16.6697637814305, -15.904929764076789 -16.99071473040609 M-16.97386807360571 -16.342718045390885 C-16.58865705368239 -16.576235229419627, -16.203446033759068 -16.80975241344837, -15.904929764076789 -16.99071473040609 M-15.904929764076789 -16.99071473040609 C-15.54606655528501 -17.177933436569905, -15.18720334649323 -17.365152142733724, -14.79667041279239 -17.56889292409717 M-15.904929764076789 -16.99071473040609 C-15.620965405826688 -17.138858754217317, -15.337001047576585 -17.287002778028544, -14.79667041279239 -17.56889292409717 M-14.79667041279239 -17.56889292409717 C-14.459568634497385 -17.718117881579406, -14.122466856202383 -17.867342839061646, -13.653644095147806 -18.07487676824742 M-14.79667041279239 -17.56889292409717 C-14.562196716021827 -17.67268747424241, -14.327723019251263 -17.77648202438765, -13.653644095147806 -18.07487676824742 M-13.653644095147806 -18.07487676824742 C-13.245579127131814 -18.22504844858852, -12.837514159115821 -18.37522012892962, -12.480547751460618 -18.506587066708033 M-13.653644095147806 -18.07487676824742 C-13.304271160656143 -18.203449237708355, -12.954898226164481 -18.33202170716929, -12.480547751460618 -18.506587066708033 M-12.480547751460618 -18.506587066708033 C-12.00902298288608 -18.64653314293694, -11.537498214311542 -18.786479219165845, -11.282201886235413 -18.862249829261067 M-12.480547751460618 -18.506587066708033 C-12.16625331235594 -18.599868006469126, -11.85195887325126 -18.693148946230217, -11.282201886235413 -18.862249829261067 M-11.282201886235413 -18.862249829261067 C-10.795813554431342 -18.97326479201486, -10.309425222627272 -19.084279754768648, -10.063530759676768 -19.140403561325773 M-11.282201886235413 -18.862249829261067 C-10.959123722141262 -18.93599031193351, -10.63604555804711 -19.00973079460595, -10.063530759676768 -19.140403561325773 M-10.063530759676768 -19.140403561325773 C-9.649058082919622 -19.207412289420255, -9.234585406162473 -19.274421017514737, -8.82954215284788 -19.3399052695533 M-10.063530759676768 -19.140403561325773 C-9.644214279391223 -19.20819539801047, -9.224897799105676 -19.275987234695165, -8.82954215284788 -19.3399052695533 M-8.82954215284788 -19.3399052695533 C-8.34261895480602 -19.386878164857574, -7.855695756764162 -19.43385106016185, -7.585306789623903 -19.45993515863156 M-8.82954215284788 -19.3399052695533 C-8.507984093742815 -19.370925588785017, -8.18642603463775 -19.40194590801674, -7.585306789623903 -19.45993515863156 M-7.585306789623903 -19.45993515863156 C-7.207014254158553 -19.47206626394218, -6.828721718693202 -19.484197369252804, -6.335937500000006 -19.5 M-7.585306789623903 -19.45993515863156 C-7.214610789168676 -19.471822657850165, -6.843914788713447 -19.48371015706877, -6.335937500000006 -19.5 M-6.335937500000006 -19.5 C-6.335937500000004 -19.5, -6.335937500000003 -19.5, -6.3359375 -19.5 M-6.335937500000006 -19.5 C-6.3359375000000036 -19.5, -6.335937500000002 -19.5, -6.3359375 -19.5" stroke="#9370DB" stroke-width="1.3" fill="none" stroke-dasharray="0 0" style=""/></g><g class="label" style="" transform="translate(-13.4609375, -12)"><rect/><foreignObject width="26.921875" height="24"><div xmlns="http://www.w3.org/1999/xhtml" style="display: table-cell; white-space: nowrap; line-height: 1.5; max-width: 200px; text-align: center;"><span class="nodeLabel"><p>idle</p></span></div></foreignObject></g></g><g class="node default" id="my-svg-flowchart-timeout-4" data-look="classic" transform="translate(50.6796875, 215.171875)"><g class="basic label-container outer-path"><path d="M-21.171875 -19.5 C-10.130364419348119 -19.5, 0.9111461613037619 -19.5, 21.171875 -19.5 C21.171875 -19.5, 21.171875 -19.5, 21.171875 -19.5 C21.463742363750136 -19.490640381729893, 21.75560972750027 -19.481280763459786, 22.4212442896239 -19.45993515863156 C22.826950019508388 -19.42079721480213, 23.232655749392872 -19.3816592709727, 23.665479652847864 -19.3399052695533 C24.0729500772905 -19.27402861130975, 24.480420501733136 -19.208151953066203, 24.89946825967676 -19.140403561325776 C25.25154881192002 -19.06004347281657, 25.60362936416328 -18.979683384307368, 26.11813938623539 -18.862249829261074 C26.537392521066796 -18.737817699547726, 26.956645655898196 -18.61338556983438, 27.316485251460602 -18.50658706670804 C27.597149948775293 -18.403299863660212, 27.87781464608998 -18.300012660612385, 28.489581595147794 -18.074876768247425 C28.723094015536336 -17.971507746641254, 28.956606435924883 -17.868138725035084, 29.63260791279238 -17.568892924097174 C29.887366049629662 -17.43598576728954, 30.14212418646694 -17.303078610481904, 30.740867264076783 -16.990714730406097 C31.005080668644226 -16.830547011867, 31.269294073211665 -16.67037929332791, 31.809805573605697 -16.342718045390892 C32.01487083357136 -16.19967339717088, 32.219936093537015 -16.056628748950864, 32.83503034457871 -15.627565626425154 C33.12217866872833 -15.398572479253653, 33.40932699287795 -15.169579332082153, 33.812328708501866 -14.848196188198123 C34.01162238950158 -14.667202940136033, 34.21091607050129 -14.486209692073942, 34.73768473676799 -14.007812326905688 C35.039024653548125 -13.696654122362915, 35.34036457032827 -13.38549591782014, 35.60729594296865 -13.10986736009568 C35.90864426971518 -12.755886468293653, 36.20999259646172 -12.401905576491625, 36.41758890812658 -12.158051136245305 C36.70617117723509 -11.771377186025465, 36.994753446343594 -11.384703235805624, 37.165233964640635 -11.156274872382312 C37.4161916360509 -10.770736497525666, 37.66714930746116 -10.385198122669019, 37.84715887860425 -10.108655082055241 C38.043269495190046 -9.760440823953868, 38.23938011177584 -9.412226565852494, 38.460561474273504 -9.019496659696287 C38.618857861802056 -8.690790823993142, 38.77715424933061 -8.362084988289999, 39.00292114880834 -7.893275190886684 C39.09950633130608 -7.654707922769797, 39.19609151380382 -7.416140654652909, 39.472009229970325 -6.734618561215508 C39.55206924266734 -6.493490558802846, 39.632129255364354 -6.252362556390185, 39.86589813421488 -5.548287939305138 C39.94879589441898 -5.232162851530382, 40.03169365462307 -4.916037763755626, 40.18296928754556 -4.339158212148133 C40.25415656899134 -3.973626567361289, 40.32534385043713 -3.6080949225744443, 40.421919776581774 -3.1121979531509023 C40.46878400299094 -2.748728267509693, 40.5156482294001 -2.3852585818684835, 40.58176770250937 -1.872449005199798 C40.604280051351566 -1.5218010003416207, 40.626792400193764 -1.1711529954834434, 40.66185621591342 -0.6250057626472757 C40.66185621591342 -0.23173728019730716, 40.66185621591342 0.16153120225266138, 40.66185621591342 0.625005762647271 C40.63302315566206 1.0741039496895457, 40.604190095410694 1.52320213673182, 40.58176770250937 1.8724490051997846 C40.53278561369533 2.2523444134339536, 40.483803524881296 2.6322398216681226, 40.421919776581774 3.1121979531508885 C40.36609526978358 3.3988449970459502, 40.310270762985375 3.6854920409410115, 40.18296928754556 4.339158212148129 C40.06796257792342 4.777728640160612, 39.952955868301274 5.216299068173096, 39.86589813421489 5.548287939305125 C39.71215311042222 6.011343455025695, 39.55840808662956 6.474398970746264, 39.472009229970325 6.734618561215495 C39.363187941524856 7.003409247592293, 39.25436665307938 7.272199933969092, 39.00292114880834 7.893275190886679 C38.85610643376624 8.198139088003266, 38.709291718724145 8.503002985119853, 38.460561474273504 9.019496659696284 C38.27496546885955 9.34904116094222, 38.08936946344559 9.678585662188155, 37.84715887860425 10.108655082055236 C37.634918663374705 10.434713047125584, 37.42267844814516 10.760771012195931, 37.16523396464064 11.156274872382301 C36.95191398919297 11.442104205632633, 36.73859401374529 11.727933538882963, 36.41758890812658 12.158051136245302 C36.09468520755856 12.537352196673568, 35.77178150699054 12.916653257101833, 35.60729594296866 13.10986736009567 C35.295214955755505 13.432116601718816, 34.98313396854235 13.754365843341962, 34.73768473676799 14.007812326905684 C34.44673135479826 14.272048490205956, 34.15577797282853 14.536284653506227, 33.81232870850189 14.848196188198111 C33.44262768321239 15.143022917709022, 33.0729266579229 15.437849647219933, 32.83503034457871 15.627565626425152 C32.51882446694672 15.848137158329406, 32.202618589314724 16.06870869023366, 31.809805573605708 16.34271804539089 C31.462122482554594 16.55348557839871, 31.114439391503485 16.76425311140653, 30.740867264076787 16.990714730406093 C30.42105545538118 17.157560346153353, 30.101243646685568 17.324405961900613, 29.632607912792388 17.56889292409717 C29.367585263890522 17.68621058914847, 29.102562614988653 17.803528254199772, 28.489581595147804 18.07487676824742 C28.051472268097204 18.236105050440266, 27.6133629410466 18.39733333263311, 27.316485251460616 18.506587066708033 C26.882396731655334 18.635422260809104, 26.44830821185005 18.764257454910176, 26.118139386235413 18.86224982926107 C25.83676809583687 18.926470990175275, 25.555396805438328 18.990692151089476, 24.899468259676766 19.140403561325773 C24.630185927395175 19.183939040493385, 24.36090359511358 19.227474519660998, 23.66547965284788 19.3399052695533 C23.30241585753892 19.374929597238655, 22.939352062229965 19.409953924924015, 22.4212442896239 19.45993515863156 C22.01194502426498 19.473060589418928, 21.602645758906053 19.4861860202063, 21.171875000000004 19.5 C21.171875000000004 19.5, 21.171875 19.5, 21.171875 19.5 C5.378647590196776 19.5, -10.414579819606448 19.5, -21.171874999999996 19.5 C-21.589208970969683 19.486616911842297, -22.00654294193937 19.473233823684595, -22.421244289623893 19.45993515863156 C-22.81322875493375 19.42212088869341, -23.20521322024361 19.38430661875526, -23.66547965284787 19.3399052695533 C-23.988997909833145 19.287601346685474, -24.312516166818423 19.235297423817645, -24.89946825967676 19.140403561325773 C-25.27050917665669 19.055715893293367, -25.641550093636624 18.97102822526096, -26.118139386235388 18.862249829261074 C-26.58257991019651 18.72440631964747, -27.04702043415763 18.586562810033872, -27.31648525146059 18.506587066708043 C-27.689202138120386 18.36942380706011, -28.061919024780178 18.23226054741217, -28.489581595147797 18.074876768247425 C-28.824330150711702 17.92669351266237, -29.15907870627561 17.77851025707732, -29.63260791279238 17.568892924097174 C-29.950500926388717 17.40304834252416, -30.268393939985053 17.237203760951143, -30.74086726407678 16.990714730406097 C-31.121197667563482 16.76015620474292, -31.50152807105018 16.529597679079743, -31.809805573605686 16.3427180453909 C-32.14901299539121 16.106101632005945, -32.488220417176734 15.869485218620989, -32.83503034457871 15.627565626425156 C-33.192952918247286 15.342131898644165, -33.55087549191586 15.056698170863175, -33.812328708501866 14.848196188198125 C-34.1599651728497 14.532481949234235, -34.50760163719754 14.216767710270345, -34.737684736767974 14.007812326905697 C-35.02545665661998 13.71066419314449, -35.313228576471985 13.413516059383284, -35.607295942968655 13.109867360095677 C-35.88698191675298 12.781332300705856, -36.16666789053731 12.452797241316032, -36.417588908126575 12.158051136245307 C-36.706855589916 11.770460135384312, -36.99612227170544 11.382869134523315, -37.165233964640635 11.156274872382316 C-37.39816394094462 10.798431878322868, -37.631093917248606 10.440588884263422, -37.84715887860425 10.108655082055249 C-38.066874974225996 9.718526905611586, -38.28659106984775 9.328398729167924, -38.460561474273504 9.019496659696289 C-38.63299997502788 8.661424423286979, -38.805438475782246 8.303352186877667, -39.00292114880834 7.893275190886686 C-39.15182525417103 7.52547917177582, -39.30072935953371 7.157683152664954, -39.472009229970325 6.73461856121551 C-39.57662860366562 6.419521676478816, -39.68124797736091 6.104424791742122, -39.86589813421488 5.5482879393051325 C-39.951408948045916 5.222198145546254, -40.03691976187695 4.896108351787376, -40.18296928754556 4.339158212148136 C-40.27422480089808 3.8705804379424986, -40.365480314250604 3.4020026637368614, -40.421919776581774 3.112197953150904 C-40.4612188840475 2.8074018361333137, -40.50051799151322 2.5026057191157234, -40.58176770250937 1.872449005199809 C-40.60014913026152 1.5861434307386033, -40.618530558013674 1.2998378562773976, -40.66185621591342 0.6250057626472781 C-40.66185621591342 0.1530448833560138, -40.66185621591342 -0.31891599593525055, -40.66185621591342 -0.6250057626472687 C-40.638762247144165 -0.9847129673444479, -40.61566827837491 -1.3444201720416271, -40.58176770250937 -1.8724490051997822 C-40.53966734786287 -2.198971042182656, -40.49756699321637 -2.5254930791655292, -40.421919776581774 -3.112197953150895 C-40.33397025494366 -3.5638001586246473, -40.24602073330554 -4.015402364098399, -40.18296928754556 -4.339158212148126 C-40.07544209817623 -4.749205987792054, -39.9679149088069 -5.1592537634359825, -39.86589813421489 -5.548287939305123 C-39.71096826380489 -6.01491202425745, -39.556038393394886 -6.4815361092097765, -39.47200922997033 -6.734618561215485 C-39.33196554195907 -7.080529178163808, -39.19192185394781 -7.426439795112131, -39.00292114880834 -7.893275190886676 C-38.87930054842653 -8.149976012636634, -38.755679948044715 -8.40667683438659, -38.460561474273504 -9.019496659696282 C-38.25653963262356 -9.381758098997466, -38.05251779097361 -9.74401953829865, -37.84715887860425 -10.108655082055243 C-37.62313181914426 -10.452820805074397, -37.39910475968428 -10.79698652809355, -37.16523396464064 -11.156274872382308 C-36.88818873313173 -11.527490243264443, -36.61114350162281 -11.898705614146579, -36.41758890812659 -12.158051136245302 C-36.10355002843656 -12.526939073647679, -35.78951114874653 -12.895827011050057, -35.60729594296866 -13.10986736009567 C-35.390600469458164 -13.333623227524505, -35.17390499594766 -13.55737909495334, -34.737684736767996 -14.007812326905677 C-34.38363474187522 -14.329351164617764, -34.029584746982444 -14.650890002329849, -33.81232870850189 -14.848196188198107 C-33.54436525631568 -15.061889910509674, -33.27640180412946 -15.27558363282124, -32.83503034457872 -15.627565626425149 C-32.48303678241432 -15.873101097835319, -32.13104322024991 -16.11863656924549, -31.80980557360571 -16.342718045390885 C-31.528502483494528 -16.513245631736737, -31.247199393383344 -16.683773218082585, -30.74086726407679 -16.99071473040609 C-30.30459932661031 -17.218315433939402, -29.868331389143833 -17.445916137472715, -29.632607912792388 -17.56889292409717 C-29.34696598571175 -17.695338131949057, -29.06132405863112 -17.82178333980094, -28.489581595147804 -18.07487676824742 C-28.138522210855083 -18.20406986682452, -27.787462826562358 -18.333262965401616, -27.31648525146062 -18.506587066708033 C-27.074242450657373 -18.57848345842803, -26.831999649854122 -18.650379850148024, -26.118139386235413 -18.862249829261067 C-25.769475242205598 -18.9418301448897, -25.420811098175783 -19.021410460518332, -24.899468259676766 -19.140403561325773 C-24.532725149225968 -19.19969574328816, -24.16598203877517 -19.258987925250548, -23.665479652847882 -19.3399052695533 C-23.222372734713502 -19.382651261031686, -22.77926581657912 -19.425397252510074, -22.421244289623903 -19.45993515863156 C-22.077943743499482 -19.470944138951793, -21.734643197375057 -19.481953119272028, -21.171875000000007 -19.5 C-21.171875000000004 -19.5, -21.171875000000004 -19.5, -21.171875 -19.5" stroke="none" stroke-width="0" fill="#ECECFF" style=""/><path d="M-21.171875 -19.5 C-6.720328297651916 -19.5, 7.731218404696168 -19.5, 21.171875 -19.5 M-21.171875 -19.5 C-8.835679447569012 -19.5, 3.500516104861976 -19.5, 21.171875 -19.5 M21.171875 -19.5 C21.171875 -19.5, 21.171875 -19.5, 21.171875 -19.5 M21.171875 -19.5 C21.171875 -19.5, 21.171875 -19.5, 21.171875 -19.5 M21.171875 -19.5 C21.61928554119493 -19.485652414775668, 22.066696082389864 -19.471304829551332, 22.4212442896239 -19.45993515863156 M21.171875 -19.5 C21.615623313043088 -19.4857698553044, 22.05937162608618 -19.471539710608806, 22.4212442896239 -19.45993515863156 M22.4212442896239 -19.45993515863156 C22.751928280259914 -19.428034471760586, 23.082612270895925 -19.396133784889617, 23.665479652847864 -19.3399052695533 M22.4212442896239 -19.45993515863156 C22.67080393811378 -19.43586043948113, 22.920363586603667 -19.4117857203307, 23.665479652847864 -19.3399052695533 M23.665479652847864 -19.3399052695533 C24.036796944315576 -19.279873569477402, 24.408114235783287 -19.219841869401506, 24.89946825967676 -19.140403561325776 M23.665479652847864 -19.3399052695533 C24.021654089239064 -19.28232174885158, 24.377828525630264 -19.224738228149857, 24.89946825967676 -19.140403561325776 M24.89946825967676 -19.140403561325776 C25.287905987362365 -19.0517451847746, 25.67634371504797 -18.96308680822342, 26.11813938623539 -18.862249829261074 M24.89946825967676 -19.140403561325776 C25.361850244853514 -19.03486789053362, 25.824232230030265 -18.92933221974146, 26.11813938623539 -18.862249829261074 M26.11813938623539 -18.862249829261074 C26.359476458776317 -18.790622252935073, 26.600813531317247 -18.718994676609068, 27.316485251460602 -18.50658706670804 M26.11813938623539 -18.862249829261074 C26.449807001467654 -18.76381262201898, 26.78147461669992 -18.665375414776882, 27.316485251460602 -18.50658706670804 M27.316485251460602 -18.50658706670804 C27.632212414326606 -18.39039655222345, 27.947939577192614 -18.27420603773886, 28.489581595147794 -18.074876768247425 M27.316485251460602 -18.50658706670804 C27.77803727061954 -18.336731657117454, 28.23958928977848 -18.166876247526872, 28.489581595147794 -18.074876768247425 M28.489581595147794 -18.074876768247425 C28.75862683279399 -17.955778422484865, 29.027672070440186 -17.836680076722306, 29.63260791279238 -17.568892924097174 M28.489581595147794 -18.074876768247425 C28.778406453405506 -17.947022571181748, 29.067231311663214 -17.819168374116067, 29.63260791279238 -17.568892924097174 M29.63260791279238 -17.568892924097174 C29.88799211952673 -17.435659147025255, 30.143376326261077 -17.30242536995334, 30.740867264076783 -16.990714730406097 M29.63260791279238 -17.568892924097174 C29.854462689784285 -17.453151429045263, 30.07631746677619 -17.337409933993357, 30.740867264076783 -16.990714730406097 M30.740867264076783 -16.990714730406097 C31.043897413549903 -16.807016072992667, 31.346927563023026 -16.623317415579233, 31.809805573605697 -16.342718045390892 M30.740867264076783 -16.990714730406097 C31.030316071501684 -16.815249162355123, 31.319764878926584 -16.63978359430415, 31.809805573605697 -16.342718045390892 M31.809805573605697 -16.342718045390892 C32.03626245080416 -16.18475153101746, 32.26271932800262 -16.026785016644034, 32.83503034457871 -15.627565626425154 M31.809805573605697 -16.342718045390892 C32.21223575994329 -16.062000168323777, 32.61466594628089 -15.78128229125666, 32.83503034457871 -15.627565626425154 M32.83503034457871 -15.627565626425154 C33.09551131823701 -15.419838981622481, 33.35599229189531 -15.212112336819809, 33.812328708501866 -14.848196188198123 M32.83503034457871 -15.627565626425154 C33.138738225602566 -15.385366673314765, 33.44244610662643 -15.143167720204374, 33.812328708501866 -14.848196188198123 M33.812328708501866 -14.848196188198123 C34.009651245372716 -14.668993081080252, 34.206973782243566 -14.489789973962381, 34.73768473676799 -14.007812326905688 M33.812328708501866 -14.848196188198123 C34.06049601287559 -14.622817208512968, 34.30866331724931 -14.397438228827815, 34.73768473676799 -14.007812326905688 M34.73768473676799 -14.007812326905688 C34.91881400754302 -13.820781483840774, 35.09994327831805 -13.63375064077586, 35.60729594296865 -13.10986736009568 M34.73768473676799 -14.007812326905688 C35.08286102198265 -13.651389472921487, 35.428037307197314 -13.294966618937286, 35.60729594296865 -13.10986736009568 M35.60729594296865 -13.10986736009568 C35.88413918491273 -12.784671535281433, 36.16098242685682 -12.459475710467185, 36.41758890812658 -12.158051136245305 M35.60729594296865 -13.10986736009568 C35.785793896351215 -12.900193507231242, 35.96429184973378 -12.690519654366803, 36.41758890812658 -12.158051136245305 M36.41758890812658 -12.158051136245305 C36.56986167897613 -11.954019495641711, 36.72213444982568 -11.749987855038118, 37.165233964640635 -11.156274872382312 M36.41758890812658 -12.158051136245305 C36.59636344529475 -11.918509543135345, 36.775137982462915 -11.678967950025385, 37.165233964640635 -11.156274872382312 M37.165233964640635 -11.156274872382312 C37.309593606647525 -10.934499696268098, 37.453953248654415 -10.712724520153884, 37.84715887860425 -10.108655082055241 M37.165233964640635 -11.156274872382312 C37.42745469901021 -10.753433408264275, 37.68967543337979 -10.350591944146236, 37.84715887860425 -10.108655082055241 M37.84715887860425 -10.108655082055241 C38.05060746855259 -9.747411509198283, 38.254056058500936 -9.386167936341325, 38.460561474273504 -9.019496659696287 M37.84715887860425 -10.108655082055241 C38.00507468929786 -9.828259569458929, 38.16299049999147 -9.547864056862617, 38.460561474273504 -9.019496659696287 M38.460561474273504 -9.019496659696287 C38.67721456302942 -8.569611885261136, 38.89386765178534 -8.119727110825984, 39.00292114880834 -7.893275190886684 M38.460561474273504 -9.019496659696287 C38.66703576438101 -8.590748378445957, 38.87351005448853 -8.162000097195625, 39.00292114880834 -7.893275190886684 M39.00292114880834 -7.893275190886684 C39.18048353698518 -7.454692659154662, 39.35804592516202 -7.016110127422641, 39.472009229970325 -6.734618561215508 M39.00292114880834 -7.893275190886684 C39.17485083771902 -7.468605535242908, 39.34678052662969 -7.0439358795991325, 39.472009229970325 -6.734618561215508 M39.472009229970325 -6.734618561215508 C39.59459286186967 -6.365416192984047, 39.71717649376902 -5.996213824752586, 39.86589813421488 -5.548287939305138 M39.472009229970325 -6.734618561215508 C39.60431183575632 -6.336144192145664, 39.736614441542315 -5.93766982307582, 39.86589813421488 -5.548287939305138 M39.86589813421488 -5.548287939305138 C39.988937313284715 -5.079086223994326, 40.11197649235455 -4.609884508683516, 40.18296928754556 -4.339158212148133 M39.86589813421488 -5.548287939305138 C39.98719381153445 -5.0857349518065265, 40.10848948885402 -4.623181964307915, 40.18296928754556 -4.339158212148133 M40.18296928754556 -4.339158212148133 C40.26718674010747 -3.9067193926076293, 40.35140419266938 -3.4742805730671256, 40.421919776581774 -3.1121979531509023 M40.18296928754556 -4.339158212148133 C40.23221180718881 -4.086308281190252, 40.28145432683206 -3.833458350232372, 40.421919776581774 -3.1121979531509023 M40.421919776581774 -3.1121979531509023 C40.48461008700838 -2.6259842850841815, 40.54730039743499 -2.1397706170174606, 40.58176770250937 -1.872449005199798 M40.421919776581774 -3.1121979531509023 C40.47920221203346 -2.6679266954839798, 40.53648464748514 -2.2236554378170568, 40.58176770250937 -1.872449005199798 M40.58176770250937 -1.872449005199798 C40.598054659521736 -1.6187665031371155, 40.6143416165341 -1.365084001074433, 40.66185621591342 -0.6250057626472757 M40.58176770250937 -1.872449005199798 C40.601602628340046 -1.5635040249229888, 40.621437554170726 -1.2545590446461796, 40.66185621591342 -0.6250057626472757 M40.66185621591342 -0.6250057626472757 C40.66185621591342 -0.35486177373570993, 40.66185621591342 -0.08471778482414416, 40.66185621591342 0.625005762647271 M40.66185621591342 -0.6250057626472757 C40.66185621591342 -0.2404655497726212, 40.66185621591342 0.14407466310203332, 40.66185621591342 0.625005762647271 M40.66185621591342 0.625005762647271 C40.638568656615334 0.987728296094422, 40.61528109731725 1.3504508295415731, 40.58176770250937 1.8724490051997846 M40.66185621591342 0.625005762647271 C40.639919198036836 0.966692523317168, 40.61798218016025 1.308379283987065, 40.58176770250937 1.8724490051997846 M40.58176770250937 1.8724490051997846 C40.52890578887369 2.2824355685924886, 40.47604387523803 2.6924221319851926, 40.421919776581774 3.1121979531508885 M40.58176770250937 1.8724490051997846 C40.52374577310574 2.3224556319283973, 40.46572384370211 2.77246225865701, 40.421919776581774 3.1121979531508885 M40.421919776581774 3.1121979531508885 C40.33716945263113 3.5473729546501485, 40.252419128680486 3.982547956149409, 40.18296928754556 4.339158212148129 M40.421919776581774 3.1121979531508885 C40.33184158629669 3.5747304222325473, 40.241763396011606 4.037262891314207, 40.18296928754556 4.339158212148129 M40.18296928754556 4.339158212148129 C40.089836120440914 4.694315342488114, 39.99670295333626 5.0494724728281, 39.86589813421489 5.548287939305125 M40.18296928754556 4.339158212148129 C40.1136805756844 4.60338610039242, 40.044391863823236 4.867613988636712, 39.86589813421489 5.548287939305125 M39.86589813421489 5.548287939305125 C39.75496126954201 5.882412100310816, 39.64402440486913 6.216536261316506, 39.472009229970325 6.734618561215495 M39.86589813421489 5.548287939305125 C39.763364631798474 5.8571025120882805, 39.66083112938207 6.165917084871436, 39.472009229970325 6.734618561215495 M39.472009229970325 6.734618561215495 C39.29263163838117 7.1776846804705166, 39.113254046792015 7.620750799725539, 39.00292114880834 7.893275190886679 M39.472009229970325 6.734618561215495 C39.338665175580026 7.063980953591446, 39.205321121189726 7.393343345967397, 39.00292114880834 7.893275190886679 M39.00292114880834 7.893275190886679 C38.88609228586491 8.135872824525924, 38.76926342292148 8.378470458165168, 38.460561474273504 9.019496659696284 M39.00292114880834 7.893275190886679 C38.858270358176334 8.193645652665142, 38.713619567544335 8.494016114443603, 38.460561474273504 9.019496659696284 M38.460561474273504 9.019496659696284 C38.24550485405085 9.401351465745806, 38.03044823382819 9.783206271795327, 37.84715887860425 10.108655082055236 M38.460561474273504 9.019496659696284 C38.306734670214766 9.292631726955552, 38.152907866156035 9.56576679421482, 37.84715887860425 10.108655082055236 M37.84715887860425 10.108655082055236 C37.620795427197905 10.456410130513078, 37.39443197579156 10.80416517897092, 37.16523396464064 11.156274872382301 M37.84715887860425 10.108655082055236 C37.61734158714511 10.461716156320076, 37.387524295685985 10.814777230584916, 37.16523396464064 11.156274872382301 M37.16523396464064 11.156274872382301 C36.89181555780983 11.522630628606302, 36.618397150979014 11.888986384830305, 36.41758890812658 12.158051136245302 M37.16523396464064 11.156274872382301 C36.95514398738252 11.437776302317518, 36.7450540101244 11.719277732252735, 36.41758890812658 12.158051136245302 M36.41758890812658 12.158051136245302 C36.16718877314684 12.452185382963817, 35.916788638167105 12.746319629682333, 35.60729594296866 13.10986736009567 M36.41758890812658 12.158051136245302 C36.24267585709844 12.36351395881751, 36.067762806070306 12.568976781389717, 35.60729594296866 13.10986736009567 M35.60729594296866 13.10986736009567 C35.372756872306766 13.352048206569888, 35.13821780164488 13.594229053044105, 34.73768473676799 14.007812326905684 M35.60729594296866 13.10986736009567 C35.26557495793324 13.462722332959379, 34.923853972897824 13.815577305823087, 34.73768473676799 14.007812326905684 M34.73768473676799 14.007812326905684 C34.45450641107805 14.264987389809365, 34.17132808538811 14.522162452713046, 33.81232870850189 14.848196188198111 M34.73768473676799 14.007812326905684 C34.49148606073269 14.231403450420933, 34.2452873846974 14.45499457393618, 33.81232870850189 14.848196188198111 M33.81232870850189 14.848196188198111 C33.59301245586021 15.023095063429254, 33.37369620321854 15.197993938660398, 32.83503034457871 15.627565626425152 M33.81232870850189 14.848196188198111 C33.547862744315246 15.059100756902081, 33.28339678012861 15.270005325606052, 32.83503034457871 15.627565626425152 M32.83503034457871 15.627565626425152 C32.47105703353621 15.88145765205771, 32.10708372249371 16.135349677690268, 31.809805573605708 16.34271804539089 M32.83503034457871 15.627565626425152 C32.48127880652407 15.874327385714805, 32.12752726846942 16.121089145004458, 31.809805573605708 16.34271804539089 M31.809805573605708 16.34271804539089 C31.575954435507487 16.48447997956786, 31.342103297409267 16.626241913744828, 30.740867264076787 16.990714730406093 M31.809805573605708 16.34271804539089 C31.494097563144013 16.534102096638975, 31.17838955268232 16.725486147887057, 30.740867264076787 16.990714730406093 M30.740867264076787 16.990714730406093 C30.490518944059968 17.121321288603117, 30.240170624043145 17.25192784680014, 29.632607912792388 17.56889292409717 M30.740867264076787 16.990714730406093 C30.386250447143627 17.17571809665721, 30.031633630210468 17.360721462908327, 29.632607912792388 17.56889292409717 M29.632607912792388 17.56889292409717 C29.34793371880672 17.694909745214698, 29.06325952482105 17.820926566332226, 28.489581595147804 18.07487676824742 M29.632607912792388 17.56889292409717 C29.196865703776357 17.761783074195193, 28.76112349476033 17.954673224293213, 28.489581595147804 18.07487676824742 M28.489581595147804 18.07487676824742 C28.087680682850824 18.222780019104018, 27.68577977055384 18.370683269960615, 27.316485251460616 18.506587066708033 M28.489581595147804 18.07487676824742 C28.069468335078987 18.22948233143715, 27.649355075010167 18.38408789462688, 27.316485251460616 18.506587066708033 M27.316485251460616 18.506587066708033 C27.061536265131878 18.582254587595866, 26.806587278803143 18.657922108483696, 26.118139386235413 18.86224982926107 M27.316485251460616 18.506587066708033 C26.895033864345177 18.631671626160422, 26.473582477229733 18.75675618561281, 26.118139386235413 18.86224982926107 M26.118139386235413 18.86224982926107 C25.68722978227103 18.960602134417986, 25.256320178306645 19.058954439574897, 24.899468259676766 19.140403561325773 M26.118139386235413 18.86224982926107 C25.78697021986173 18.93783703040509, 25.45580105348805 19.013424231549106, 24.899468259676766 19.140403561325773 M24.899468259676766 19.140403561325773 C24.522837847073394 19.201294245623014, 24.146207434470018 19.262184929920256, 23.66547965284788 19.3399052695533 M24.899468259676766 19.140403561325773 C24.600656203976616 19.188713177169273, 24.301844148276466 19.237022793012773, 23.66547965284788 19.3399052695533 M23.66547965284788 19.3399052695533 C23.3025919539298 19.374912609431615, 22.93970425501172 19.40991994930993, 22.4212442896239 19.45993515863156 M23.66547965284788 19.3399052695533 C23.36788803968545 19.3686135745688, 23.070296426523026 19.3973218795843, 22.4212442896239 19.45993515863156 M22.4212442896239 19.45993515863156 C21.97121576495765 19.474366697490222, 21.521187240291393 19.488798236348885, 21.171875000000004 19.5 M22.4212442896239 19.45993515863156 C22.04226540013744 19.472088273979733, 21.663286510650977 19.484241389327902, 21.171875000000004 19.5 M21.171875000000004 19.5 C21.171875000000004 19.5, 21.171875 19.5, 21.171875 19.5 M21.171875000000004 19.5 C21.171875000000004 19.5, 21.171875 19.5, 21.171875 19.5 M21.171875 19.5 C9.151051592905114 19.5, -2.8697718141897717 19.5, -21.171874999999996 19.5 M21.171875 19.5 C4.338330919231144 19.5, -12.495213161537713 19.5, -21.171874999999996 19.5 M-21.171874999999996 19.5 C-21.557789414019965 19.48762447587922, -21.943703828039933 19.475248951758434, -22.421244289623893 19.45993515863156 M-21.171874999999996 19.5 C-21.656161394326418 19.484469877940235, -22.14044778865284 19.468939755880466, -22.421244289623893 19.45993515863156 M-22.421244289623893 19.45993515863156 C-22.808529225204552 19.422574246674372, -23.195814160785208 19.38521333471719, -23.66547965284787 19.3399052695533 M-22.421244289623893 19.45993515863156 C-22.7537174348527 19.427861874168794, -23.086190580081507 19.39578858970603, -23.66547965284787 19.3399052695533 M-23.66547965284787 19.3399052695533 C-23.937597357385886 19.295911389387907, -24.2097150619239 19.25191750922252, -24.89946825967676 19.140403561325773 M-23.66547965284787 19.3399052695533 C-24.05538115894394 19.276869017779024, -24.445282665040008 19.213832766004753, -24.89946825967676 19.140403561325773 M-24.89946825967676 19.140403561325773 C-25.231558471075758 19.064606137665105, -25.563648682474756 18.98880871400444, -26.118139386235388 18.862249829261074 M-24.89946825967676 19.140403561325773 C-25.369540353127523 19.03311267350272, -25.839612446578286 18.925821785679666, -26.118139386235388 18.862249829261074 M-26.118139386235388 18.862249829261074 C-26.568777465958092 18.728502812646926, -27.019415545680793 18.59475579603278, -27.31648525146059 18.506587066708043 M-26.118139386235388 18.862249829261074 C-26.51802328890636 18.74356638598177, -26.91790719157733 18.624882942702463, -27.31648525146059 18.506587066708043 M-27.31648525146059 18.506587066708043 C-27.563162063287646 18.415807719700236, -27.809838875114703 18.325028372692426, -28.489581595147797 18.074876768247425 M-27.31648525146059 18.506587066708043 C-27.564084241117577 18.415468349734304, -27.81168323077456 18.324349632760562, -28.489581595147797 18.074876768247425 M-28.489581595147797 18.074876768247425 C-28.92084057549449 17.883971210491065, -29.352099555841182 17.693065652734706, -29.63260791279238 17.568892924097174 M-28.489581595147797 18.074876768247425 C-28.85858797513802 17.9115285900111, -29.22759435512824 17.74818041177477, -29.63260791279238 17.568892924097174 M-29.63260791279238 17.568892924097174 C-29.943195405916928 17.40685962787488, -30.253782899041475 17.24482633165259, -30.74086726407678 16.990714730406097 M-29.63260791279238 17.568892924097174 C-29.972478320816553 17.39158274992835, -30.312348728840725 17.214272575759527, -30.74086726407678 16.990714730406097 M-30.74086726407678 16.990714730406097 C-31.091209146042928 16.77833542272079, -31.441551028009076 16.565956115035487, -31.809805573605686 16.3427180453909 M-30.74086726407678 16.990714730406097 C-31.022711303195518 16.819859217592896, -31.304555342314256 16.649003704779698, -31.809805573605686 16.3427180453909 M-31.809805573605686 16.3427180453909 C-32.09345254160623 16.144858199393063, -32.37709950960678 15.946998353395228, -32.83503034457871 15.627565626425156 M-31.809805573605686 16.3427180453909 C-32.135225520364735 16.11571917773424, -32.46064546712378 15.888720310077577, -32.83503034457871 15.627565626425156 M-32.83503034457871 15.627565626425156 C-33.19591065785645 15.339773180014612, -33.55679097113419 15.051980733604067, -33.812328708501866 14.848196188198125 M-32.83503034457871 15.627565626425156 C-33.088716697421106 15.425257510910715, -33.3424030502635 15.222949395396274, -33.812328708501866 14.848196188198125 M-33.812328708501866 14.848196188198125 C-34.17063545973591 14.5227914770045, -34.52894221096996 14.197386765810872, -34.737684736767974 14.007812326905697 M-33.812328708501866 14.848196188198125 C-34.148622518468784 14.542783047832799, -34.484916328435695 14.237369907467473, -34.737684736767974 14.007812326905697 M-34.737684736767974 14.007812326905697 C-34.951068659561614 13.787475907475391, -35.16445258235525 13.567139488045088, -35.607295942968655 13.109867360095677 M-34.737684736767974 14.007812326905697 C-34.96611664903792 13.771937622878191, -35.19454856130787 13.536062918850687, -35.607295942968655 13.109867360095677 M-35.607295942968655 13.109867360095677 C-35.83809113414806 12.838762195917939, -36.06888632532746 12.5676570317402, -36.417588908126575 12.158051136245307 M-35.607295942968655 13.109867360095677 C-35.88376834035766 12.785107150397472, -36.160240737746676 12.460346940699267, -36.417588908126575 12.158051136245307 M-36.417588908126575 12.158051136245307 C-36.574341025708634 11.94801757909704, -36.731093143290686 11.737984021948773, -37.165233964640635 11.156274872382316 M-36.417588908126575 12.158051136245307 C-36.616466772906136 11.891572915586899, -36.815344637685705 11.62509469492849, -37.165233964640635 11.156274872382316 M-37.165233964640635 11.156274872382316 C-37.35350971091559 10.867032766987174, -37.541785457190535 10.577790661592035, -37.84715887860425 10.108655082055249 M-37.165233964640635 11.156274872382316 C-37.333056882628455 10.898453803589604, -37.500879800616275 10.64063273479689, -37.84715887860425 10.108655082055249 M-37.84715887860425 10.108655082055249 C-38.06507715377847 9.72171911786524, -38.28299542895269 9.334783153675229, -38.460561474273504 9.019496659696289 M-37.84715887860425 10.108655082055249 C-38.08710428177336 9.68260772162173, -38.32704968494247 9.256560361188212, -38.460561474273504 9.019496659696289 M-38.460561474273504 9.019496659696289 C-38.608640485037185 8.71200742546224, -38.756719495800866 8.404518191228192, -39.00292114880834 7.893275190886686 M-38.460561474273504 9.019496659696289 C-38.63096548916249 8.665649076717468, -38.801369504051486 8.311801493738647, -39.00292114880834 7.893275190886686 M-39.00292114880834 7.893275190886686 C-39.10085410935002 7.651378884943756, -39.1987870698917 7.4094825790008265, -39.472009229970325 6.73461856121551 M-39.00292114880834 7.893275190886686 C-39.16322970317868 7.4973099622368915, -39.323538257549025 7.101344733587098, -39.472009229970325 6.73461856121551 M-39.472009229970325 6.73461856121551 C-39.60099127702733 6.346145185978193, -39.729973324084334 5.957671810740876, -39.86589813421488 5.5482879393051325 M-39.472009229970325 6.73461856121551 C-39.61313634844571 6.309566165920388, -39.75426346692109 5.884513770625266, -39.86589813421488 5.5482879393051325 M-39.86589813421488 5.5482879393051325 C-39.944078107970235 5.250153815961021, -40.02225808172558 4.952019692616908, -40.18296928754556 4.339158212148136 M-39.86589813421488 5.5482879393051325 C-39.95782730834914 5.197722155975104, -40.0497564824834 4.847156372645076, -40.18296928754556 4.339158212148136 M-40.18296928754556 4.339158212148136 C-40.24248876502403 4.033538274742218, -40.302008242502495 3.727918337336302, -40.421919776581774 3.112197953150904 M-40.18296928754556 4.339158212148136 C-40.26106137222155 3.938171862104887, -40.339153456897535 3.537185512061638, -40.421919776581774 3.112197953150904 M-40.421919776581774 3.112197953150904 C-40.46392101715391 2.7864446253565394, -40.505922257726034 2.460691297562175, -40.58176770250937 1.872449005199809 M-40.421919776581774 3.112197953150904 C-40.47438921872914 2.70525532111927, -40.5268586608765 2.298312689087636, -40.58176770250937 1.872449005199809 M-40.58176770250937 1.872449005199809 C-40.610321201813896 1.4277052055619306, -40.63887470111843 0.982961405924052, -40.66185621591342 0.6250057626472781 M-40.58176770250937 1.872449005199809 C-40.60565145324347 1.5004403088996403, -40.62953520397756 1.1284316125994713, -40.66185621591342 0.6250057626472781 M-40.66185621591342 0.6250057626472781 C-40.66185621591342 0.21881409195471369, -40.66185621591342 -0.18737757873785077, -40.66185621591342 -0.6250057626472687 M-40.66185621591342 0.6250057626472781 C-40.66185621591342 0.2793249860364346, -40.66185621591342 -0.06635579057440899, -40.66185621591342 -0.6250057626472687 M-40.66185621591342 -0.6250057626472687 C-40.633958461639914 -1.0595358041189733, -40.60606070736642 -1.494065845590678, -40.58176770250937 -1.8724490051997822 M-40.66185621591342 -0.6250057626472687 C-40.63744013017423 -1.0053060063448624, -40.61302404443503 -1.3856062500424562, -40.58176770250937 -1.8724490051997822 M-40.58176770250937 -1.8724490051997822 C-40.52678323154707 -2.298897704071419, -40.47179876058478 -2.725346402943056, -40.421919776581774 -3.112197953150895 M-40.58176770250937 -1.8724490051997822 C-40.52414672377101 -2.3193459377452, -40.466525745032655 -2.766242870290618, -40.421919776581774 -3.112197953150895 M-40.421919776581774 -3.112197953150895 C-40.344851269416665 -3.5079284490089937, -40.26778276225155 -3.903658944867092, -40.18296928754556 -4.339158212148126 M-40.421919776581774 -3.112197953150895 C-40.35909546421947 -3.434787519208217, -40.29627115185716 -3.7573770852655386, -40.18296928754556 -4.339158212148126 M-40.18296928754556 -4.339158212148126 C-40.06714797115637 -4.78083508881615, -39.95132665476719 -5.222511965484173, -39.86589813421489 -5.548287939305123 M-40.18296928754556 -4.339158212148126 C-40.110735351548655 -4.614617516490237, -40.03850141555174 -4.890076820832348, -39.86589813421489 -5.548287939305123 M-39.86589813421489 -5.548287939305123 C-39.77639677416477 -5.817851775670895, -39.686895414114666 -6.087415612036667, -39.47200922997033 -6.734618561215485 M-39.86589813421489 -5.548287939305123 C-39.76663396710413 -5.847255795045512, -39.66736979999336 -6.146223650785901, -39.47200922997033 -6.734618561215485 M-39.47200922997033 -6.734618561215485 C-39.34526858861827 -7.047670395718687, -39.2185279472662 -7.360722230221889, -39.00292114880834 -7.893275190886676 M-39.47200922997033 -6.734618561215485 C-39.35885049412142 -7.014122826537625, -39.24569175827251 -7.293627091859766, -39.00292114880834 -7.893275190886676 M-39.00292114880834 -7.893275190886676 C-38.8261214758221 -8.260403494749601, -38.64932180283586 -8.627531798612528, -38.460561474273504 -9.019496659696282 M-39.00292114880834 -7.893275190886676 C-38.83162284416637 -8.248979785672297, -38.660324539524396 -8.604684380457918, -38.460561474273504 -9.019496659696282 M-38.460561474273504 -9.019496659696282 C-38.24163939487116 -9.408214979939531, -38.02271731546881 -9.796933300182781, -37.84715887860425 -10.108655082055243 M-38.460561474273504 -9.019496659696282 C-38.31277818482715 -9.281900854789054, -38.1649948953808 -9.544305049881824, -37.84715887860425 -10.108655082055243 M-37.84715887860425 -10.108655082055243 C-37.67913894726314 -10.366778816264095, -37.51111901592204 -10.624902550472946, -37.16523396464064 -11.156274872382308 M-37.84715887860425 -10.108655082055243 C-37.60324016719073 -10.483379724131483, -37.3593214557772 -10.858104366207725, -37.16523396464064 -11.156274872382308 M-37.16523396464064 -11.156274872382308 C-37.01446515958526 -11.358291335835826, -36.863696354529864 -11.560307799289344, -36.41758890812659 -12.158051136245302 M-37.16523396464064 -11.156274872382308 C-36.89603180998572 -11.516981234799095, -36.626829655330795 -11.877687597215882, -36.41758890812659 -12.158051136245302 M-36.41758890812659 -12.158051136245302 C-36.177527698256135 -12.44004069322894, -35.93746648838569 -12.722030250212581, -35.60729594296866 -13.10986736009567 M-36.41758890812659 -12.158051136245302 C-36.243865246807914 -12.362116833986581, -36.07014158548924 -12.566182531727861, -35.60729594296866 -13.10986736009567 M-35.60729594296866 -13.10986736009567 C-35.393039865823475 -13.331104350499153, -35.17878378867829 -13.552341340902636, -34.737684736767996 -14.007812326905677 M-35.60729594296866 -13.10986736009567 C-35.340898401264454 -13.384944693550196, -35.074500859560246 -13.66002202700472, -34.737684736767996 -14.007812326905677 M-34.737684736767996 -14.007812326905677 C-34.52779034826668 -14.198432857041379, -34.31789595976535 -14.389053387177082, -33.81232870850189 -14.848196188198107 M-34.737684736767996 -14.007812326905677 C-34.47104099535505 -14.249971117850125, -34.20439725394209 -14.492129908794572, -33.81232870850189 -14.848196188198107 M-33.81232870850189 -14.848196188198107 C-33.47939492699318 -15.11370201921129, -33.14646114548447 -15.379207850224473, -32.83503034457872 -15.627565626425149 M-33.81232870850189 -14.848196188198107 C-33.52141826408713 -15.080189526166832, -33.230507819672376 -15.312182864135554, -32.83503034457872 -15.627565626425149 M-32.83503034457872 -15.627565626425149 C-32.501366083965245 -15.860315370536066, -32.16770182335176 -16.093065114646983, -31.80980557360571 -16.342718045390885 M-32.83503034457872 -15.627565626425149 C-32.50141142140326 -15.860283745101931, -32.1677924982278 -16.093001863778714, -31.80980557360571 -16.342718045390885 M-31.80980557360571 -16.342718045390885 C-31.586797126709286 -16.4779070764426, -31.363788679812856 -16.613096107494318, -30.74086726407679 -16.99071473040609 M-31.80980557360571 -16.342718045390885 C-31.579746607650456 -16.482181142529512, -31.349687641695205 -16.621644239668136, -30.74086726407679 -16.99071473040609 M-30.74086726407679 -16.99071473040609 C-30.344978124047895 -17.197249841180067, -29.949088984019003 -17.403784951954044, -29.632607912792388 -17.56889292409717 M-30.74086726407679 -16.99071473040609 C-30.333340549473608 -17.203321156381254, -29.92581383487042 -17.415927582356414, -29.632607912792388 -17.56889292409717 M-29.632607912792388 -17.56889292409717 C-29.231332202787595 -17.746525777495282, -28.830056492782806 -17.9241586308934, -28.489581595147804 -18.07487676824742 M-29.632607912792388 -17.56889292409717 C-29.361086820151815 -17.689087257422113, -29.089565727511243 -17.809281590747055, -28.489581595147804 -18.07487676824742 M-28.489581595147804 -18.07487676824742 C-28.046134839421285 -18.238069273531654, -27.60268808369477 -18.401261778815886, -27.31648525146062 -18.506587066708033 M-28.489581595147804 -18.07487676824742 C-28.17975770944831 -18.188894822165437, -27.869933823748813 -18.302912876083457, -27.31648525146062 -18.506587066708033 M-27.31648525146062 -18.506587066708033 C-27.04872024085398 -18.58605831632886, -26.780955230247343 -18.66552956594969, -26.118139386235413 -18.862249829261067 M-27.31648525146062 -18.506587066708033 C-26.99517808183782 -18.601949348076328, -26.673870912215023 -18.697311629444627, -26.118139386235413 -18.862249829261067 M-26.118139386235413 -18.862249829261067 C-25.782927296644296 -18.938759801246928, -25.44771520705318 -19.015269773232784, -24.899468259676766 -19.140403561325773 M-26.118139386235413 -18.862249829261067 C-25.79636390227387 -18.93569298369402, -25.47458841831233 -19.009136138126976, -24.899468259676766 -19.140403561325773 M-24.899468259676766 -19.140403561325773 C-24.62984298986709 -19.183994483973404, -24.360217720057413 -19.22758540662104, -23.665479652847882 -19.3399052695533 M-24.899468259676766 -19.140403561325773 C-24.504911263387168 -19.20419247665067, -24.11035426709757 -19.267981391975567, -23.665479652847882 -19.3399052695533 M-23.665479652847882 -19.3399052695533 C-23.218885259640267 -19.3829876935577, -22.772290866432648 -19.426070117562098, -22.421244289623903 -19.45993515863156 M-23.665479652847882 -19.3399052695533 C-23.360114148365813 -19.369363512514933, -23.054748643883745 -19.39882175547657, -22.421244289623903 -19.45993515863156 M-22.421244289623903 -19.45993515863156 C-21.924014561743753 -19.475880348205724, -21.426784833863604 -19.491825537779885, -21.171875000000007 -19.5 M-22.421244289623903 -19.45993515863156 C-21.951810416510376 -19.474988989244707, -21.482376543396846 -19.490042819857855, -21.171875000000007 -19.5 M-21.171875000000007 -19.5 C-21.171875000000004 -19.5, -21.171875 -19.5, -21.171875 -19.5 M-21.171875000000007 -19.5 C-21.171875000000004 -19.5, -21.171875000000004 -19.5, -21.171875 -19.5" stroke="#9370DB" stroke-width="1.3" fill="none" stroke-dasharray="0 0" style=""/></g><g class="label" style="" transform="translate(-28.296875, -12)"><rect/><foreignObject width="56.59375" height="24"><div xmlns="http://www.w3.org/1999/xhtml" style="display: table-cell; white-space: nowrap; line-height: 1.5; max-width: 200px; text-align: center;"><span class="nodeLabel"><p>timeout</p></span></div></foreignObject></g></g></g></g></g><defs><filter id="my-svg-drop-shadow" height="130%" width="130%"><feDropShadow dx="4" dy="4" stdDeviation="0" flood-opacity="0.06" flood-color="#000000"/></filter></defs><defs><filter id="my-svg-drop-shadow-small" height="150%" width="150%"><feDropShadow dx="2" dy="2" stdDeviation="0" flood-opacity="0.06" flood-color="#000000"/></filter></defs></svg>